<?xml version="1.0" encoding="utf-8"?>
<!-- Generator: Adobe Illustrator 16.0.3, SVG Export Plug-In . SVG Version: 6.00 Build 0)  -->
<!DOCTYPE svg PUBLIC "-//W3C//DTD SVG 1.1//EN" "http://www.w3.org/Graphics/SVG/1.1/DTD/svg11.dtd">
<svg version="1.1" id="Capa_1" xmlns="http://www.w3.org/2000/svg" xmlns:xlink="http://www.w3.org/1999/xlink" x="0px" y="0px"
	 width="612px" height="792px" viewBox="0 0 612 792" enable-background="new 0 0 612 792" xml:space="preserve">
<g>
	<path fill-rule="evenodd" clip-rule="evenodd" fill="#FFFFFF" d="M593.875,385.433c-0.525-0.41-0.731-0.949-0.646-1.605
		C593.929,384.17,594.065,384.51,593.875,385.433z"/>
	<path fill-rule="evenodd" clip-rule="evenodd" fill="#FFFFFF" d="M595.134,388.632c-0.479-0.078-0.688-0.258-0.254-0.678
		C595.338,388.04,595.382,388.281,595.134,388.632z"/>
	<g>
		<path fill-rule="evenodd" clip-rule="evenodd" fill="#FFFFFF" d="M568.564,393.563c0.177,0.442,0.354,0.885,0.53,1.327
			c-0.215,0.261-0.146,0.541-0.04,0.813c0.457,1.163,0.901,2.331,1.39,3.479c0.175,0.412,0.145,0.986,0.74,1.135
			c0.076,0.156,0.152,0.313,0.228,0.469c-0.223,0.395-0.023,0.762,0.118,1.104c0.647,1.557,1.318,3.104,1.991,4.65
			c0.025,0.059,0.162,0.07,0.247,0.104c0.259,0.553,0.714,1.021,0.72,1.684c-0.205,0.205-0.172,0.445-0.071,0.67
			c0.648,1.465,1.165,2.984,1.781,4.457c1.459,3.486,2.911,6.975,4.257,10.508c0.196,0.516,0.282,1.162,0.992,1.307
			c0.117,0.424,0.234,0.848,0.352,1.271c-0.254,0.412,0.024,0.744,0.17,1.092c0.244,0.582,0.526,1.15,0.759,1.738
			c1.23,3.123,2.447,6.252,3.676,9.375c0.127,0.322,0.303,0.623,0.732,0.584c0.151,0.449,0.304,0.9,0.456,1.35
			c-0.085,0.656,0.121,1.195,0.646,1.605c0.307,0.852,0.834,1.615,1.005,2.521c-0.434,0.42-0.225,0.6,0.254,0.678
			c0.327,0.531,0.514,1.119,0.666,1.719c-0.275,0.469,0.061,0.852,0.214,1.236c0.343,0.861,0.788,1.686,1.104,2.555
			c0.293,0.809-0.05,1.361-0.855,1.236c-1.04-0.16-2.04,0.053-3.057,0.049c-3.961-0.021-7.923-0.012-11.884-0.008
			c-0.49,0-0.977,0.02-1.447-0.156c-0.278-0.105-0.543-0.189-0.614-0.545c-0.301-1.479-1.177-2.727-1.633-4.168
			c-0.879-2.781-2.041-5.475-3.138-8.184c-0.97-2.395-1.9-4.803-2.765-7.238c-0.62-1.744-1.279-3.484-2.084-5.148
			c-0.488-1.01-0.879-2.055-1.304-3.082c-0.795-1.924-1.416-3.92-2.164-5.865c-0.768-1.996-1.607-3.967-2.397-5.955
			c-0.18-0.453-0.472-0.752-0.94-0.82c-0.433-0.063-0.876-0.07-1.314-0.07c-7.385-0.002-14.769,0.006-22.153,0
			c-6.406-0.004-12.812-0.021-19.218-0.035c-1.698-0.004-1.958,0.211-2.549,1.809c-0.693,1.875-1.441,3.732-2.187,5.59
			c-1.233,3.076-2.491,6.145-3.724,9.223c-0.651,1.629-1.189,3.307-1.842,4.928c-0.944,2.348-2.011,4.65-2.928,7.014
			c-0.634,1.635-1.417,3.223-2.004,4.855c-0.815,2.271-1.913,4.41-2.743,6.664c-0.283,0.768-0.826,1.131-1.693,1.074
			c-0.925-0.061-1.858,0.016-2.786-0.012c-1.012-0.027-1.22-0.299-0.994-1.246c0.066-0.277,0.176-0.566,0.34-0.799
			c0.654-0.92,0.977-1.986,1.378-3.02c0.61-1.566,1.065-3.215,1.848-4.691c1.566-2.955,2.342-6.209,3.689-9.238
			c0.087-0.195-0.015-0.473-0.029-0.713c0.216-0.473,0.432-0.945,0.647-1.42c0.204,0.023,0.415-0.002,0.486-0.211
			c0.311-0.902,0.616-1.795,1.155-2.605c0.266-0.4,0.283-0.922-0.009-1.381c0.133-0.271,0.266-0.543,0.398-0.816
			c0.866-0.697,1.379-1.535,1.081-2.699c0.422-1.059,0.844-2.117,1.265-3.176c0.47,0.137,0.585-0.211,0.719-0.529
			c0.415-0.986,0.814-1.979,1.245-2.957c1.179-2.68,2.206-5.424,3.38-8.107c1.049-2.398,1.836-4.91,2.821-7.34
			c1.594-3.93,3.243-7.841,4.899-11.747c0.328-0.773,0.321-1.624,0.707-2.38c0.527-1.034,1.017-2.091,1.465-3.162
			c1.165-2.784,2.287-5.585,3.383-8.399c1.055-2.708,2.313-5.345,3.311-8.079c1.504-4.121,3.528-8.029,4.904-12.198
			c0.145-0.439,0.639-0.916,0.097-1.425c0.104-0.322,0.209-0.645,0.313-0.967c0.535,0.051,0.645-0.168,0.39-0.617
			c0.095-0.25,0.189-0.5,0.284-0.75c0.626-0.242,0.865-0.655,0.577-1.301c0.089-0.264,0.178-0.528,0.267-0.792
			c0.358,0.075,0.541-0.132,0.657-0.423c0.358-0.896,0.695-1.802,1.065-2.693c0.706-1.694,1.149-3.484,1.934-5.151
			c0.254-0.538,0.628-1.1,0.363-1.766c0.08-0.139,0.16-0.277,0.24-0.416c0.499-0.083,0.548-0.364,0.336-0.761
			c0.113-0.322,0.228-0.644,0.341-0.966c0.382,0.01,0.463-0.295,0.574-0.559c0.303-0.719,0.603-1.439,0.896-2.162
			c0.955-2.353,0.956-2.295,3.411-2.389c0.969-0.037,1.449,0.409,1.813,1.142c0.171,0.344,0.185,0.768,0.362,1.107
			c0.406,0.78,0.452,1.793,1.395,2.24c0.072,0.144,0.144,0.288,0.216,0.432c-0.364,0.48-0.066,0.931,0.092,1.364
			c0.516,1.402,1.046,2.808,1.644,4.167c0.426,0.968,0.515,2.166,1.479,2.872c0.076,0.153,0.152,0.307,0.229,0.46
			c-0.223,0.415-0.021,0.61,0.367,0.708c0.159,0.453,0.229,0.939,0.521,1.341c-0.17,0.337-0.074,0.538,0.305,0.594
			c0.092,0.293,0.184,0.586,0.275,0.88c-0.243,0.464,0.042,0.853,0.2,1.247c1.794,4.482,3.591,8.963,5.401,13.439
			c1.042,2.575,2.121,5.136,3.162,7.711c1.043,2.578,2.052,5.169,3.095,7.748c0.155,0.382,0.227,0.872,0.763,0.973
			c0.09,0.535,0.368,0.977,0.686,1.4c-0.387,0.493-0.043,0.925,0.128,1.361c0.194,0.499,0.435,0.979,0.632,1.477
			c1.059,2.675,2.106,5.354,3.169,8.027C567.961,393.13,568.051,393.559,568.564,393.563z M515.173,405.465
			c-0.03,0.473,0.205,0.746,0.661,0.801c0.387,0.045,0.778,0.063,1.169,0.063c11.732,0.004,23.464,0.004,35.196,0.004
			c0.733,0,1.467,0.002,2.198-0.037c0.541-0.027,0.801-0.34,0.661-0.887c-0.096-0.379-0.2-0.762-0.369-1.109
			c-0.849-1.756-1.553-3.568-2.191-5.41c-1.423-4.097-3.323-8.007-4.76-12.103c-0.58-1.655-1.161-3.323-1.863-4.927
			c-0.938-2.145-1.823-4.308-2.648-6.497c-0.81-2.147-1.555-4.324-2.465-6.428c-1.161-2.685-2.218-5.406-3.229-8.148
			c-0.54-1.464-1.114-2.915-1.655-4.378c-0.139-0.376-0.384-0.548-0.762-0.563c-0.425-0.017-0.592,0.251-0.685,0.618
			c-0.097,0.377-0.19,0.76-0.334,1.12c-1.269,3.166-2.569,6.318-3.818,9.491c-1.198,3.043-2.222,6.162-3.546,9.148
			c-1.8,4.063-3.138,8.304-4.995,12.346c-1.178,2.563-2.013,5.281-3.048,7.912c-1.018,2.588-2.095,5.154-3.141,7.73
			C515.386,404.615,515.18,405.012,515.173,405.465z"/>
		<path fill-rule="evenodd" clip-rule="evenodd" d="M498.289,432.441c0.015,0.24,0.116,0.518,0.029,0.713
			c-1.348,3.029-2.123,6.283-3.689,9.238c-0.782,1.477-1.237,3.125-1.848,4.691c-0.401,1.033-0.724,2.1-1.378,3.02
			c-0.164,0.232-0.273,0.521-0.34,0.799c-0.226,0.947-0.018,1.219,0.994,1.246c0.928,0.027,1.861-0.049,2.786,0.012
			c0.867,0.057,1.41-0.307,1.693-1.074c0.83-2.254,1.928-4.393,2.743-6.664c0.587-1.633,1.37-3.221,2.004-4.855
			c0.917-2.363,1.983-4.666,2.928-7.014c0.652-1.621,1.19-3.299,1.842-4.928c1.232-3.078,2.49-6.146,3.724-9.223
			c0.745-1.857,1.493-3.715,2.187-5.59c0.591-1.598,0.851-1.813,2.549-1.809c6.406,0.014,12.812,0.031,19.218,0.035
			c7.385,0.006,14.769-0.002,22.153,0c0.438,0,0.882,0.008,1.314,0.07c0.469,0.068,0.761,0.367,0.94,0.82
			c0.79,1.988,1.63,3.959,2.397,5.955c0.748,1.945,1.369,3.941,2.164,5.865c0.425,1.027,0.815,2.072,1.304,3.082
			c0.805,1.664,1.464,3.404,2.084,5.148c0.864,2.436,1.795,4.844,2.765,7.238c1.097,2.709,2.259,5.402,3.138,8.184
			c0.456,1.441,1.332,2.689,1.633,4.168c0.071,0.355,0.336,0.439,0.614,0.545c0.471,0.176,0.957,0.156,1.447,0.156
			c3.961-0.004,7.923-0.014,11.884,0.008c1.017,0.004,2.017-0.209,3.057-0.049c0.806,0.125,1.148-0.428,0.855-1.236
			c-0.315-0.869-0.761-1.693-1.104-2.555c-0.153-0.385-0.489-0.768-0.214-1.236c0.198-0.057,0.41-0.076,0.511,0.139
			c0.602,1.279,1.253,2.543,1.767,3.857c0.539,1.379,0.141,1.928-1.34,1.957c-1.563,0.031-3.128-0.012-4.692-0.014
			c-3.569-0.004-7.139-0.025-10.708,0.008c-1.519,0.014-2.611-0.365-3.1-2.025c-0.602-2.039-1.749-3.869-2.388-5.926
			c-0.524-1.691-1.306-3.307-1.669-5.061c-0.029-0.141-0.068-0.297-0.153-0.404c-1.468-1.869-1.987-4.156-2.845-6.301
			c-0.612-1.531-1.221-3.064-1.844-4.592c-0.299-0.729-0.629-1.42-0.663-2.213c-0.035-0.83-0.659-1.396-0.964-2.105
			c-0.552-1.291-1.16-2.521-1.568-3.898c-0.418-1.412-1.133-2.781-1.667-4.191c-0.462-1.217-1.103-2.357-1.446-3.627
			c-0.209-0.771-0.75-1.242-1.604-1.248c-0.342-0.002-0.685-0.004-1.026-0.004c-12.762-0.006-25.523-0.014-38.284-0.018
			c-0.634,0-1.263-0.002-1.895,0.137c-0.787,0.174-1.323,0.619-1.657,1.311c-0.654,1.355-1.17,2.77-1.729,4.164
			c-0.739,1.846-1.307,3.758-2.197,5.553c-0.686,1.381-1.286,2.834-1.688,4.32c-0.336,1.236-0.847,2.402-1.377,3.521
			c-1.268,2.68-2.232,5.48-3.333,8.217c-0.867,2.156-1.7,4.336-2.591,6.486c-0.646,1.564-1.363,3.102-2.108,4.621
			c-0.268,0.547-0.267,1.135-0.461,1.688c-0.408,1.16-0.797,1.525-1.988,1.566c-1.367,0.047-2.737,0.049-4.105,0.049
			c-0.286,0-0.585-0.061-0.854-0.156c-0.506-0.18-0.727-0.428-0.586-1.092c0.402-1.891,1.304-3.57,2.072-5.303
			c0.258-0.58,0.585-1.115,0.642-1.762c0.048-0.557,0.35-1.016,0.595-1.488c0.895-1.725,1.603-3.51,2.163-5.379
			c0.485-1.623,1.271-3.156,1.932-4.727C497.495,432.83,497.909,432.65,498.289,432.441z"/>
		<path fill-rule="evenodd" clip-rule="evenodd" d="M61.925,333.661c-0.009,0.72-0.62,0.639-1.05,0.766
			c-2.246,0.66-4.522,1.284-6.616,2.314c-3.527,1.734-6.966,3.628-10.156,5.977c-2.668,1.964-5.19,4.093-7.438,6.486
			c-3.169,3.375-6.016,7.029-8.364,11.052c-1.648,2.825-3.036,5.782-4.403,8.736c-0.974,2.104-1.614,4.387-2.196,6.644
			c-0.657,2.546-1.389,5.083-1.778,7.694c-0.049,0.325-0.022,0.706-0.45,0.833c-0.412-0.691-0.289-1.48-0.1-2.131
			c0.733-2.521,1.25-5.092,1.899-7.631c0.313-1.223,1.071-2.324,0.999-3.649c0.873-0.724,0.629-1.974,1.311-2.788
			c0.031-0.037,0.067-0.081,0.073-0.126c0.313-2.28,2.406-3.744,2.75-6.008c0.869-0.799,0.967-2.034,1.767-2.934
			c0.948-1.065,1.561-2.428,2.313-3.666c0.151-0.248,0.218-0.568,0.416-0.762c2.631-2.582,4.62-5.759,7.563-8.056
			c1.264-0.986,2.312-2.261,3.621-3.171c1.377-0.957,2.588-2.132,4.073-2.946c1.486-0.814,2.899-1.761,4.374-2.596
			c0.623-0.353,1.35-0.517,1.982-0.856c2.495-1.338,5.106-2.363,7.851-3.053C60.878,333.66,61.381,333.417,61.925,333.661z"/>
		<path fill-rule="evenodd" clip-rule="evenodd" d="M530.244,353.81c0.542,0.509,0.048,0.986-0.097,1.425
			c-1.376,4.169-3.4,8.077-4.904,12.198c-0.998,2.734-2.256,5.37-3.311,8.079c-1.096,2.814-2.218,5.615-3.383,8.399
			c-0.448,1.071-0.938,2.128-1.465,3.162c-0.386,0.757-0.379,1.607-0.707,2.38c-1.656,3.906-3.306,7.817-4.899,11.747
			c-0.985,2.43-1.772,4.941-2.821,7.34c-1.174,2.684-2.201,5.428-3.38,8.107c-0.431,0.979-0.83,1.971-1.245,2.957
			c-0.134,0.318-0.249,0.666-0.719,0.529c0.161-1.479,0.965-2.734,1.485-4.078c2.288-5.91,4.628-11.801,7.082-17.641
			c2.056-4.891,3.902-9.864,6.053-14.717c1.083-2.442,1.886-5.017,2.94-7.483c0.823-1.927,1.647-3.854,2.432-5.796
			c0.729-1.807,1.344-3.661,2.115-5.448c1.464-3.394,2.808-6.834,4.156-10.274C529.71,354.355,529.785,353.925,530.244,353.81z"/>
		<path fill-rule="evenodd" clip-rule="evenodd" d="M467.917,342.279c0.311,0.017,0.411,0.243,0.425,0.491
			c0.028,0.536,0.031,1.074,0.031,1.612c0.001,24.583,0.005,49.167-0.021,73.749c-0.001,0.594,0.435,1.385-0.437,1.803
			c-0.386-0.41-0.25-0.924-0.25-1.396c-0.007-24.954-0.007-49.908,0-74.861C467.666,343.203,467.53,342.689,467.917,342.279z"/>
		<path fill-rule="evenodd" clip-rule="evenodd" d="M20.332,408.002c0.506,0.109,0.474,0.58,0.575,0.924
			c0.606,2.049,1.202,4.102,1.761,6.164c0.576,2.127,1.509,4.107,2.476,6.066c1.465,2.969,2.888,5.961,4.786,8.699
			c2.844,4.102,6.04,7.891,9.736,11.246c0.791,0.719,1.658,1.354,2.49,2.027c0.222,0.178,0.508,0.32,0.388,0.689
			c-0.174,0.123-0.381,0.16-0.544,0.039c-1.221-0.92-2.636-1.551-3.652-2.779c-1.23-1.488-2.554-2.908-4.122-4.068
			c-0.194-0.143-0.407-0.295-0.535-0.492c-0.883-1.365-1.685-2.789-2.966-3.848c-0.172-1.455-1.418-2.273-2.17-3.338
			c-0.967-1.369-1.517-2.902-2.36-4.293c-0.786-1.295-1.226-2.73-1.937-4.049c-1.125-2.082-1.715-4.395-2.731-6.525
			c-0.101-0.211-0.125-0.461-0.164-0.697c-0.228-1.395-0.508-2.775-1.013-4.104C20.144,409.123,19.928,408.559,20.332,408.002z"/>
		<path fill-rule="evenodd" clip-rule="evenodd" d="M563.209,380.52c-0.536-0.101-0.607-0.59-0.763-0.973
			c-1.043-2.578-2.052-5.169-3.095-7.748c-1.041-2.575-2.12-5.136-3.162-7.711c-1.811-4.476-3.607-8.957-5.401-13.439
			c-0.158-0.394-0.443-0.782-0.2-1.247c0.71-0.049,0.696,0.562,0.859,0.978c0.729,1.851,1.412,3.72,2.158,5.564
			c1.404,3.47,2.905,6.902,4.24,10.398c0.799,2.09,1.759,4.107,2.577,6.188c0.991,2.519,1.822,5.102,2.98,7.554
			C563.487,380.263,563.474,380.464,563.209,380.52z"/>
		<path fill-rule="evenodd" clip-rule="evenodd" d="M581.447,425.27c-0.71-0.145-0.796-0.791-0.992-1.307
			c-1.346-3.533-2.798-7.021-4.257-10.508c-0.616-1.473-1.133-2.992-1.781-4.457c-0.101-0.225-0.134-0.465,0.071-0.67
			c0.532,0.07,0.651,0.506,0.813,0.912c0.289,0.723,0.598,1.438,0.878,2.162c1.382,3.582,2.895,7.107,4.402,10.637
			c0.398,0.932,0.52,1.971,1.037,2.867C581.656,424.973,581.509,425.146,581.447,425.27z"/>
		<path fill-rule="evenodd" clip-rule="evenodd" d="M19.388,384.926c0.417,0.934,0.191,1.904,0.074,2.836
			c-0.349,2.76-0.649,5.523-0.359,8.298c0.152,1.455,0.239,2.91,0.373,4.365c0.022,0.238,0.105,0.482-0.166,0.641
			c-0.532-0.238-0.583-0.73-0.627-1.215c-0.343-3.734-0.451-7.474-0.051-11.205c0.113-1.053,0.357-2.095,0.383-3.164
			C19.021,385.232,19.11,385.009,19.388,384.926z"/>
		<path fill-rule="evenodd" clip-rule="evenodd" d="M545.462,336.586c-0.942-0.447-0.988-1.459-1.395-2.24
			c-0.178-0.34-0.191-0.763-0.362-1.107c-0.363-0.733-0.844-1.178-1.813-1.142c-2.455,0.094-2.456,0.036-3.411,2.389
			c-0.293,0.723-0.593,1.443-0.896,2.162c-0.111,0.264-0.192,0.569-0.574,0.559c-0.279-0.242-0.177-0.519-0.069-0.794
			c0.473-1.223,0.977-2.435,1.409-3.671c0.284-0.812,0.854-1.155,1.646-1.192c0.631-0.03,1.265,0.011,1.897,0.009
			c1.69-0.007,1.901,0.134,2.494,1.644c0.319,0.814,0.662,1.62,0.986,2.432C545.498,335.94,545.724,336.243,545.462,336.586z"/>
		<path fill-rule="evenodd" clip-rule="evenodd" d="M587.136,439.33c-0.43,0.039-0.605-0.262-0.732-0.584
			c-1.229-3.123-2.445-6.252-3.676-9.375c-0.232-0.588-0.515-1.156-0.759-1.738c-0.146-0.348-0.424-0.68-0.17-1.092
			c0.562,0.117,0.699,0.594,0.905,1.033c1.173,2.506,2.104,5.111,3.139,7.674c0.363,0.9,0.766,1.787,1.08,2.703
			C587.071,438.383,587.412,438.82,587.136,439.33z"/>
		<path fill-rule="evenodd" clip-rule="evenodd" d="M536.095,339.351c0.265,0.666-0.109,1.228-0.363,1.766
			c-0.784,1.667-1.228,3.457-1.934,5.151c-0.37,0.891-0.707,1.796-1.065,2.693c-0.116,0.291-0.299,0.498-0.657,0.423
			c-0.178-0.445-0.028-0.857,0.132-1.265c0.995-2.525,1.975-5.058,3.008-7.568C535.397,340.107,535.415,339.462,536.095,339.351z"/>
		<path fill-rule="evenodd" clip-rule="evenodd" d="M568.564,393.563c-0.514-0.005-0.604-0.433-0.741-0.779
			c-1.063-2.673-2.11-5.352-3.169-8.027c-0.197-0.497-0.438-0.978-0.632-1.477c-0.171-0.436-0.515-0.868-0.128-1.361
			c0.753,0.197,0.796,0.928,1.012,1.465c1.292,3.208,2.529,6.437,3.785,9.658C568.771,393.247,568.724,393.418,568.564,393.563z"/>
		<path fill-rule="evenodd" clip-rule="evenodd" d="M49.181,448.371c0.579-0.211,1.068,0.113,1.472,0.391
			c2.221,1.525,4.812,2.225,7.227,3.313c0.42,0.189,0.984,0.148,1.148,0.736c-0.232,0.252-0.521,0.234-0.798,0.123
			c-2.407-0.963-4.828-1.895-7.202-2.936c-0.579-0.254-1.018-0.818-1.697-0.986C49.14,448.963,49.08,448.625,49.181,448.371z"/>
		<path fill-rule="evenodd" clip-rule="evenodd" d="M548.892,345.42c-0.964-0.706-1.053-1.903-1.479-2.872
			c-0.598-1.358-1.128-2.765-1.644-4.167c-0.158-0.433-0.456-0.884-0.092-1.364c0.222-0.032,0.377,0.068,0.453,0.266
			c0.913,2.349,1.83,4.697,2.721,7.054C548.978,344.671,549.246,345.048,548.892,345.42z"/>
		<path fill-rule="evenodd" clip-rule="evenodd" d="M45.068,445.734c0.243-0.16,0.458-0.055,0.668,0.074
			c0.866,0.531,1.736,1.057,2.596,1.598c0.311,0.195,0.742,0.311,0.674,0.824c-0.969,0.26-1.804,0.012-2.394-0.785
			C46.15,446.82,45.093,446.742,45.068,445.734z"/>
		<path fill-rule="evenodd" clip-rule="evenodd" d="M573.769,406.645c-0.085-0.033-0.222-0.045-0.247-0.104
			c-0.673-1.547-1.344-3.094-1.991-4.65c-0.142-0.342-0.341-0.709-0.118-1.104c0.291-0.1,0.482,0.041,0.568,0.293
			c0.552,1.617,1.289,3.158,1.952,4.73C574.051,406.09,574.293,406.461,573.769,406.645z"/>
		<path fill-rule="evenodd" clip-rule="evenodd" d="M571.185,400.318c-0.596-0.148-0.565-0.723-0.74-1.135
			c-0.488-1.148-0.933-2.316-1.39-3.479c-0.106-0.272-0.175-0.552,0.04-0.813c0.211-0.054,0.396-0.001,0.48,0.202
			c0.606,1.478,1.21,2.958,1.796,4.444C571.479,399.811,571.472,400.111,571.185,400.318z"/>
		<path fill-rule="evenodd" clip-rule="evenodd" d="M500.569,426.824c0.292,0.459,0.274,0.98,0.009,1.381
			c-0.539,0.811-0.845,1.703-1.155,2.605c-0.071,0.209-0.282,0.234-0.486,0.211c-0.074-1.557,0.754-2.818,1.37-4.146
			C500.328,426.828,500.479,426.84,500.569,426.824z"/>
		<path fill-rule="evenodd" clip-rule="evenodd" d="M62.63,453.781c1.151-0.328,2.08,0.244,3.025,0.748
			C64.472,454.984,63.415,454.934,62.63,453.781z"/>
		<path fill-rule="evenodd" clip-rule="evenodd" d="M42.571,443.846c1.019,0.279,1.797,0.877,2.305,1.768
			c-0.926-0.133-1.938-0.613-2.295-1.111C42.433,444.299,42.412,444.066,42.571,443.846z"/>
		<path fill-rule="evenodd" clip-rule="evenodd" d="M66.241,332.617c-0.808,0.609-1.626,1.178-2.723,0.789
			C64.33,332.809,65.124,332.154,66.241,332.617z"/>
		<path fill-rule="evenodd" clip-rule="evenodd" d="M502.049,423.309c0.298,1.164-0.215,2.002-1.081,2.699
			C500.769,424.885,501.227,424.023,502.049,423.309z"/>
		<path fill-rule="evenodd" clip-rule="evenodd" d="M468.962,334.561c-0.299,0.684-0.647,1.348-0.708,2.116
			c-0.005,0.069-0.224,0.122-0.343,0.182c-0.444-1.305-0.34-1.875,0.473-2.412C468.583,334.315,468.829,334.224,468.962,334.561z"/>
		<path fill-rule="evenodd" clip-rule="evenodd" d="M59.495,452.91c0.955-0.283,1.734-0.025,2.343,0.76
			c-0.112,0.287-0.364,0.299-0.574,0.205C60.652,453.596,59.916,453.535,59.495,452.91z"/>
		<path fill-rule="evenodd" clip-rule="evenodd" d="M19.485,403.883c0.671,0.514,0.879,1.158,0.557,1.953
			C19.282,405.35,19.143,404.684,19.485,403.883z"/>
		<path fill-rule="evenodd" clip-rule="evenodd" d="M471.014,334.542c-0.548,0.599-0.872,0.6-1.425,0
			C470.063,334.118,470.538,334.115,471.014,334.542z"/>
		<path fill-rule="evenodd" clip-rule="evenodd" d="M67.622,454.658c0.655-0.342,1.041,0.027,1.379,0.523
			C68.292,455.66,67.918,455.262,67.622,454.658z"/>
		<path fill-rule="evenodd" clip-rule="evenodd" d="M531.809,350.175c0.288,0.646,0.049,1.06-0.577,1.301
			C531.036,350.871,531.229,350.437,531.809,350.175z"/>
		<path fill-rule="evenodd" clip-rule="evenodd" d="M20.133,406.645c0.349,0.246,0.458,0.529,0.13,0.877
			C19.776,407.295,19.734,407.002,20.133,406.645z"/>
		<path fill-rule="evenodd" clip-rule="evenodd" d="M549.487,346.588c-0.388-0.098-0.59-0.293-0.367-0.708
			C549.692,345.882,549.736,346.159,549.487,346.588z"/>
		<path fill-rule="evenodd" clip-rule="evenodd" d="M536.671,338.173c0.212,0.397,0.163,0.678-0.336,0.761
			C536.063,338.512,536.224,338.279,536.671,338.173z"/>
		<path fill-rule="evenodd" clip-rule="evenodd" d="M530.947,352.226c0.255,0.449,0.146,0.667-0.39,0.617
			C530.395,352.452,530.553,352.264,530.947,352.226z"/>
		<path fill-rule="evenodd" clip-rule="evenodd" d="M550.313,348.522c-0.379-0.056-0.475-0.257-0.305-0.594
			C550.487,347.933,550.769,348.039,550.313,348.522z"/>
		<path fill-rule="evenodd" clip-rule="evenodd" d="M515.172,405.465c0.008-0.453,0.214-0.85,0.378-1.256
			c1.046-2.576,2.123-5.143,3.141-7.73c1.035-2.631,1.87-5.349,3.048-7.912c1.857-4.042,3.195-8.283,4.995-12.346
			c1.324-2.986,2.348-6.104,3.546-9.148c1.249-3.173,2.55-6.326,3.818-9.491c0.144-0.36,0.237-0.742,0.334-1.12
			c0.093-0.367,0.26-0.635,0.685-0.618c0.378,0.016,0.623,0.188,0.762,0.563c0.541,1.464,1.115,2.915,1.655,4.378
			c1.011,2.742,2.067,5.463,3.229,8.148c0.91,2.104,1.655,4.281,2.465,6.428c0.825,2.189,1.71,4.352,2.648,6.497
			c0.702,1.604,1.283,3.272,1.863,4.927c1.437,4.096,3.337,8.006,4.76,12.103c0.639,1.842,1.343,3.654,2.191,5.41
			c0.169,0.348,0.273,0.73,0.369,1.109c0.14,0.547-0.12,0.859-0.661,0.887c-0.731,0.039-1.465,0.037-2.198,0.037
			c-11.732,0-23.464,0-35.196-0.004c-0.391,0-0.782-0.018-1.169-0.063C515.378,406.211,515.143,405.938,515.172,405.465z"/>
		<g>
			<path fill-rule="evenodd" clip-rule="evenodd" d="M603.131,560.996c-199.979,0-399.957,0-599.968,0c0-88.025,0-176.061,0-264.138
				c199.968,0,399.967,0,599.968,0C603.131,384.879,603.131,472.934,603.131,560.996z M396.535,344.325l-0.014-0.014
				c-0.056-0.651-0.519-0.958-1.032-1.222c-0.058-0.072-0.107-0.148-0.151-0.229c0.06-0.593-0.231-0.879-0.805-0.917
				c-0.055-0.057-0.101-0.12-0.139-0.189c-0.112-0.911-0.355-1.187-1.368-1.549c-0.322-0.369-0.645-0.737-0.966-1.106
				c0.178-0.461-0.009-0.664-0.475-0.669c-0.194-0.229-0.39-0.458-0.584-0.687c-0.209-1.455-1.786-1.892-2.327-3.104
				c-0.019-0.042-0.259,0.015-0.396,0.025c-1.486-0.263-2.975-0.162-4.463-0.012c-0.482-0.092-0.599,0.205-0.6,0.589
				c-0.002,0.88,0.016,1.76,0.016,2.64c0.001,37.866,0.002,75.732,0.002,113.598c0,0.246-0.009,0.49,0.002,0.734
				c0.058,1.293,0.479,1.734,1.803,1.781c0.977,0.033,1.958,0.023,2.935-0.018c1.067-0.047,1.485-0.475,1.566-1.527
				c0.026-0.34,0.007-0.686,0.007-1.027c-0.003-26.662-0.005-53.326-0.009-79.989c0-1.809-0.025-3.617-0.027-5.426
				c0-1.027,0.021-2.054,0.037-3.081c0.003-0.196,0.025-0.411,0.252-0.471c0.196-0.052,0.396,0.02,0.528,0.175
				c0.156,0.184,0.281,0.395,0.417,0.596c1.385,2.052,2.751,4.123,4.712,5.69c0.862,0.69,1.175,1.759,1.898,2.55
				c1.414,1.543,2.857,3.082,4.169,4.69c1.896,2.326,3.83,4.627,5.719,6.961c1.374,1.699,2.808,3.37,4.287,4.987
				c1.068,1.169,2.113,2.377,3.108,3.589c1.724,2.099,3.813,3.916,5.132,6.345c0.112,0.205,0.321,0.369,0.511,0.521
				c1.496,1.201,2.496,2.848,3.754,4.26c0.672,0.756,1.413,1.465,2.001,2.318c1.604,2.326,3.791,4.18,5.4,6.502
				c1.082,1.563,2.76,2.574,3.662,4.336c0.536,1.045,1.53,1.893,2.432,2.705c0.925,0.832,1.173,2.281,2.518,2.713
				c0.079,0.025,0.149,0.131,0.19,0.215c0.958,1.951,2.689,3.293,4.004,4.963c1.708,2.174,3.663,4.168,5.319,6.389
				c1.303,1.748,3.064,3.096,4.191,4.984c0.426,0.713,0.962,1.326,1.645,1.842c0.532,0.4,1.021,0.93,1.362,1.502
				c1.555,2.604,4.289,4.25,5.645,7.006c1.02,0.572,1.629,1.561,2.294,2.441c1.061,1.406,2.713,2.234,3.571,3.82
				c0.186,0.346,0.626,0.486,1.024,0.498c1.222,0.035,2.446,0.082,3.666,0.027c0.784-0.035,1.107-0.441,1.119-1.244
				c0.02-1.223-0.016-2.445-0.016-3.668c-0.002-37.182-0.002-74.363-0.003-111.544c0-0.538,0.034-1.08-0.013-1.614
				c-0.13-1.482-0.883-1.892-2.402-1.34c-0.211,0-0.421,0-0.632,0c-0.476-0.427-0.95-0.424-1.425,0
				c-0.209,0.006-0.418,0.012-0.627,0.019c-0.133-0.337-0.379-0.246-0.578-0.114c-0.813,0.537-0.917,1.106-0.473,2.412
				c0.002,1.807,0.004,3.613,0.006,5.42c-0.387,0.41-0.251,0.924-0.252,1.397c-0.007,24.954-0.007,49.907,0,74.86
				c0,0.473-0.136,0.988,0.25,1.398c-0.005,1.318-0.01,2.639-0.016,3.957c-0.325,0.381-0.13,0.848-0.205,1.27
				c-0.081,0.463-0.363,0.537-0.75,0.396c-0.235-0.088-0.382-0.281-0.542-0.473c-1.102-1.305-2.205-2.607-3.33-3.893
				c-0.96-1.096-2.091-2.072-2.895-3.27c-1.451-2.16-3.332-3.943-4.94-5.961c-1.884-2.361-3.906-4.613-5.862-6.918
				c-2.019-2.377-4.024-4.764-6.043-7.141c-1.702-2.002-3.488-3.938-5.106-6.005c-1.922-2.455-4.089-4.692-6.055-7.106
				c-1.63-2.001-3.387-3.898-5.015-5.901c-2.062-2.536-4.213-4.997-6.331-7.481c-2.084-2.445-4.048-4.994-6.249-7.343
				c-1.23-1.313-2.287-2.787-3.458-4.156c-2.661-3.112-5.372-6.18-7.941-9.371c-0.365-0.455-0.59-1.158-1.358-1.183
				c-0.62-0.657-1.239-1.313-1.859-1.97c0.222-0.457,0.07-0.687-0.429-0.704c-0.244-0.258-0.488-0.516-0.732-0.774
				c0.153-0.622-0.146-0.912-0.729-0.991c-0.345-0.354-0.689-0.708-1.034-1.063C397.191,344.519,397.031,344.295,396.535,344.325z
				 M42.571,444.977c-0.159,0.221-0.138,0.451,0.01,0.656c0.357,0.498,1.369,0.977,2.296,1.111c0.068,0.033,0.132,0.074,0.191,0.121
				c0.025,1.006,1.082,1.084,1.545,1.711c0.589,0.797,1.425,1.045,2.394,0.785c0.063,0.039,0.122,0.086,0.174,0.141
				c-0.101,0.252-0.041,0.592,0.15,0.639c0.679,0.17,1.118,0.734,1.697,0.988c2.374,1.039,4.795,1.971,7.202,2.936
				c0.276,0.109,0.565,0.129,0.798-0.125c0.156,0.033,0.312,0.066,0.467,0.1c0.421,0.627,1.157,0.688,1.769,0.965
				c0.209,0.096,0.461,0.082,0.574-0.205c0.264,0.037,0.528,0.074,0.792,0.111c0.785,1.154,1.842,1.205,3.025,0.75
				c0.656,0.043,1.312,0.084,1.967,0.127c0.297,0.604,0.671,1.004,1.379,0.523c2.958,0.002,5.915,0.004,8.873,0.006
				c0.973,0.555,1.992,0.16,2.989,0.125c0.338-0.012,0.362-0.404,0.431-0.682c0.658-0.035,1.316-0.07,1.974-0.105
				c1.188,0.592,2.117,0.156,2.93-0.74c0.354-0.035,0.708-0.072,1.063-0.107c0.248,0.213,0.53,0.238,0.819,0.119
				c0.312-0.129,0.533-0.434,0.904-0.453c1.397-0.07,2.618-0.76,3.889-1.213c1.166-0.418,2.375-0.734,3.493-1.35
				c1.062-0.586,2.04-1.359,3.168-1.771c2.267-0.826,4.092-2.385,6.018-3.701c1.873-1.279,3.701-2.703,5.45-4.191
				c1.244-1.061,2.171-2.404,3.497-3.424c1.147-0.883,1.972-2.264,2.871-3.459c1.857-2.475,3.675-4.986,5.233-7.674
				c1.386-2.391,2.701-4.832,3.501-7.465c0.536-1.762,1.511-3.324,1.924-5.158c0.313-1.389,0.87-2.779,1.239-4.18
				c1.137-4.309,1.354-8.764,1.782-13.176c0.404-4.155-0.16-8.301-0.578-12.432c-0.314-3.107-0.979-6.162-1.844-9.168
				c-0.567-1.971-1.402-3.838-2.126-5.748c-1.025-2.703-2.152-5.327-3.614-7.822c-1.703-2.906-3.477-5.762-5.539-8.428
				c-1.488-1.923-3.167-3.669-4.84-5.437c-2.155-2.275-4.513-4.311-6.999-6.125c-3.813-2.783-8.025-4.952-12.424-6.732
				c-2.458-0.995-5.083-1.369-7.586-2.187c-0.334-0.109-0.754-0.306-1.058,0.125c-0.268-0.03-0.535-0.06-0.803-0.09
				c-0.836-0.713-1.782-0.893-2.829-0.586c-1.529-0.032-3.058-0.064-4.587-0.096c-0.108-0.085-0.216-0.242-0.326-0.244
				c-2.221-0.036-4.451-0.22-6.651,0.246c-0.407,0.086-0.879,0.149-1.03,0.666c-0.658,0.031-1.316,0.061-1.974,0.092
				c-1.118-0.462-1.912,0.192-2.723,0.789c-0.525,0.12-1.092-0.013-1.594,0.255c-0.544-0.244-1.047,0-1.561,0.129
				c-2.745,0.69-5.356,1.715-7.851,3.053c-0.632,0.339-1.36,0.503-1.982,0.856c-1.475,0.835-2.888,1.781-4.374,2.596
				c-1.485,0.814-2.696,1.99-4.073,2.946c-1.309,0.91-2.357,2.185-3.621,3.171c-2.943,2.297-4.933,5.475-7.563,8.056
				c-0.197,0.194-0.265,0.514-0.416,0.762c-0.751,1.238-1.365,2.601-2.313,3.666c-0.8,0.899-0.898,2.135-1.767,2.934
				c-0.344,2.265-2.438,3.729-2.75,6.008c-0.006,0.045-0.042,0.089-0.073,0.126c-0.682,0.814-0.438,2.063-1.311,2.788
				c0.072,1.325-0.686,2.426-0.999,3.649c-0.649,2.539-1.166,5.111-1.899,7.631c-0.189,0.65-0.313,1.44,0.1,2.131
				c-0.028,0.254-0.057,0.509-0.085,0.764c-0.277,0.083-0.367,0.307-0.373,0.557c-0.026,1.069-0.271,2.111-0.383,3.164
				c-0.4,3.731-0.292,7.472,0.051,11.204c0.044,0.484,0.095,0.979,0.627,1.217c0.059,0.938,0.117,1.877,0.176,2.816
				c-0.342,0.801-0.203,1.465,0.557,1.953c0.03,0.27,0.061,0.539,0.091,0.809c-0.398,0.357-0.357,0.648,0.13,0.875
				c0.023,0.16,0.046,0.32,0.069,0.48c-0.404,0.559-0.188,1.121,0.018,1.662c0.505,1.328,0.785,2.709,1.013,4.104
				c0.039,0.236,0.063,0.486,0.164,0.697c1.016,2.133,1.606,4.443,2.731,6.527c0.711,1.316,1.151,2.752,1.937,4.047
				c0.844,1.391,1.394,2.924,2.36,4.295c0.751,1.064,1.998,1.881,2.17,3.336c1.281,1.059,2.083,2.484,2.966,3.85
				c0.128,0.197,0.34,0.348,0.535,0.492c1.568,1.16,2.891,2.58,4.122,4.066c1.017,1.229,2.431,1.861,3.652,2.779
				c0.163,0.123,0.37,0.084,0.544-0.037L42.571,444.977z M500.968,427.139c-0.133,0.271-0.266,0.545-0.398,0.816
				c-0.09,0.016-0.241,0.002-0.263,0.049c-0.616,1.33-1.444,2.592-1.37,4.148c-0.216,0.473-0.432,0.945-0.647,1.42
				c-0.38,0.209-0.794,0.389-0.977,0.822c-0.661,1.568-1.446,3.102-1.932,4.725c-0.561,1.871-1.269,3.654-2.163,5.381
				c-0.245,0.473-0.547,0.93-0.595,1.486c-0.057,0.646-0.384,1.182-0.642,1.764c-0.769,1.732-1.67,3.412-2.072,5.301
				c-0.141,0.664,0.08,0.912,0.586,1.092c0.27,0.096,0.568,0.156,0.854,0.156c1.368,0,2.738-0.002,4.105-0.049
				c1.191-0.041,1.58-0.406,1.988-1.566c0.194-0.553,0.193-1.139,0.461-1.686c0.745-1.521,1.462-3.057,2.108-4.621
				c0.891-2.152,1.724-4.332,2.591-6.486c1.101-2.736,2.065-5.537,3.333-8.217c0.53-1.121,1.041-2.285,1.377-3.523
				c0.402-1.484,1.003-2.938,1.688-4.32c0.891-1.793,1.458-3.707,2.197-5.553c0.559-1.395,1.074-2.809,1.729-4.164
				c0.334-0.691,0.87-1.137,1.657-1.309c0.632-0.139,1.261-0.137,1.895-0.137c12.761,0.004,25.522,0.01,38.284,0.018
				c0.342,0,0.685,0,1.026,0.004c0.854,0.006,1.395,0.477,1.604,1.248c0.344,1.27,0.984,2.41,1.446,3.625
				c0.534,1.412,1.249,2.779,1.667,4.191c0.408,1.379,1.017,2.609,1.568,3.898c0.305,0.711,0.929,1.275,0.964,2.105
				c0.034,0.793,0.364,1.484,0.663,2.215c0.623,1.525,1.231,3.059,1.844,4.59c0.857,2.145,1.377,4.432,2.845,6.301
				c0.085,0.109,0.124,0.266,0.153,0.406c0.363,1.752,1.145,3.369,1.669,5.059c0.639,2.057,1.786,3.887,2.388,5.928
				c0.488,1.66,1.581,2.039,3.1,2.025c3.569-0.033,7.139-0.012,10.708-0.01c1.564,0.002,3.129,0.045,4.692,0.014
				c1.48-0.029,1.879-0.578,1.34-1.955c-0.514-1.316-1.165-2.578-1.767-3.859c-0.101-0.213-0.313-0.193-0.511-0.139
				c-0.152-0.6-0.339-1.186-0.666-1.719c0.248-0.35,0.204-0.592-0.254-0.678c-0.171-0.906-0.698-1.67-1.005-2.521
				c0.19-0.922,0.054-1.262-0.646-1.605c-0.152-0.449-0.305-0.898-0.456-1.348c0.276-0.512-0.064-0.947-0.213-1.379
				c-0.314-0.918-0.717-1.803-1.08-2.703c-1.035-2.563-1.966-5.168-3.139-7.674c-0.206-0.441-0.344-0.916-0.905-1.035
				c-0.117-0.424-0.234-0.848-0.352-1.271c0.062-0.123,0.209-0.297,0.171-0.361c-0.518-0.898-0.639-1.936-1.037-2.867
				c-1.508-3.529-3.021-7.057-4.402-10.637c-0.28-0.727-0.589-1.441-0.878-2.164c-0.161-0.404-0.28-0.84-0.813-0.91
				c-0.006-0.662-0.461-1.131-0.72-1.684c0.524-0.184,0.282-0.557,0.164-0.836c-0.663-1.57-1.4-3.111-1.952-4.73
				c-0.086-0.25-0.277-0.393-0.568-0.291c-0.075-0.158-0.151-0.314-0.228-0.471c0.287-0.207,0.295-0.506,0.187-0.781
				c-0.586-1.486-1.189-2.965-1.796-4.443c-0.084-0.203-0.27-0.256-0.48-0.201c-0.177-0.443-0.354-0.886-0.53-1.328
				c0.159-0.145,0.207-0.317,0.127-0.521c-1.256-3.221-2.493-6.45-3.785-9.658c-0.216-0.538-0.259-1.269-1.012-1.465
				c-0.317-0.423-0.596-0.866-0.686-1.4c0.265-0.056,0.278-0.257,0.194-0.435c-1.158-2.453-1.989-5.036-2.98-7.554
				c-0.818-2.08-1.778-4.097-2.577-6.188c-1.335-3.496-2.836-6.928-4.24-10.398c-0.746-1.844-1.429-3.714-2.158-5.564
				c-0.163-0.416-0.149-1.027-0.859-0.978c-0.092-0.293-0.184-0.586-0.275-0.88c0.456-0.483,0.175-0.59-0.305-0.594
				c-0.291-0.401-0.361-0.888-0.521-1.341c0.249-0.429,0.205-0.706-0.367-0.708c-0.076-0.153-0.152-0.307-0.229-0.46
				c0.354-0.372,0.086-0.749-0.04-1.082c-0.891-2.357-1.808-4.705-2.721-7.054c-0.076-0.198-0.231-0.298-0.453-0.266
				c-0.072-0.144-0.144-0.288-0.216-0.432c0.262-0.343,0.036-0.646-0.086-0.951c-0.324-0.813-0.667-1.618-0.986-2.432
				c-0.593-1.51-0.804-1.651-2.494-1.644c-0.633,0.002-1.267-0.039-1.897-0.009c-0.792,0.038-1.362,0.38-1.646,1.192
				c-0.433,1.236-0.937,2.448-1.409,3.671c-0.107,0.276-0.21,0.552,0.069,0.794c-0.113,0.322-0.228,0.644-0.341,0.966
				c-0.447,0.106-0.607,0.339-0.336,0.761c-0.08,0.139-0.16,0.277-0.24,0.416c-0.68,0.111-0.697,0.757-0.88,1.2
				c-1.033,2.51-2.013,5.042-3.008,7.568c-0.16,0.408-0.31,0.82-0.132,1.265c-0.089,0.264-0.178,0.528-0.267,0.792
				c-0.58,0.262-0.772,0.696-0.577,1.301c-0.095,0.25-0.189,0.5-0.284,0.75c-0.395,0.038-0.553,0.226-0.39,0.617
				c-0.104,0.322-0.209,0.645-0.313,0.967c-0.459,0.116-0.534,0.546-0.667,0.886c-1.349,3.439-2.692,6.88-4.156,10.274
				c-0.771,1.788-1.387,3.642-2.115,5.448c-0.784,1.943-1.608,3.87-2.432,5.796c-1.055,2.466-1.857,5.041-2.94,7.483
				c-2.15,4.853-3.997,9.827-6.053,14.716c-2.454,5.842-4.794,11.732-7.082,17.641c-0.521,1.344-1.324,2.602-1.485,4.08
				c-0.421,1.059-0.843,2.117-1.265,3.176C501.227,425.154,500.769,426.014,500.968,427.139z M153.021,394.617
				c-0.001,0-0.002,0-0.004,0c0,18.932,0,37.861,0,56.793c0,0.391-0.023,0.785,0.012,1.172c0.075,0.84,0.427,1.227,1.26,1.361
				c0.383,0.061,0.78,0.049,1.171,0.049c3.571,0.006,7.142,0.008,10.712,0.008c0.978,0,1.959,0.037,2.934-0.025
				c0.998-0.063,1.391-0.502,1.467-1.477c0.023-0.291,0.007-0.586,0.007-0.879c0-18.246-0.001-36.492-0.004-54.738
				c0-0.881-0.006-1.761-0.031-2.641c-0.022-0.792,0.424-1.162,1.132-1.275c0.335-0.053,0.683-0.029,1.025-0.029
				c18.295-0.001,36.59-0.001,54.884,0c0.342,0,0.685,0.007,1.027,0.022c0.464,0.021,0.719,0.286,0.763,0.732
				c0.033,0.339,0.024,0.684,0.024,1.026c0.001,18.93,0,37.859,0.001,56.791c0,0.391-0.007,0.783,0.01,1.174
				c0.033,0.75,0.468,1.17,1.177,1.275c0.432,0.064,0.878,0.037,1.318,0.037c4.011,0,8.022-0.027,12.033,0.002
				c2.729,0.02,2.851-0.064,2.851-2.73c-0.001-34.73-0.004-69.462-0.001-104.193c0-3.277,0.031-6.554,0.051-9.831
				c0.01-1.614-0.432-2.042-2.099-2.013c-3.372,0.058-6.746-0.057-10.118,0.148c-1.162,0.071-2.338-0.136-3.507-0.125
				c-1.319,0.013-1.726,0.472-1.726,1.808c-0.003,16.045-0.003,32.089-0.001,48.133c0,2.253,0.008,2.254-2.235,2.255
				c-18.099,0.001-36.198,0.001-54.297,0.001c-0.342,0-0.686-0.015-1.027,0c-0.652,0.026-1.01-0.341-1.15-0.915
				c-0.091-0.373-0.098-0.773-0.098-1.161c0-16.093,0.005-32.187,0.011-48.28c0-1.221-0.274-1.587-1.435-1.792
				c-0.334-0.059-0.681-0.06-1.022-0.06c-4.395-0.006-8.79-0.014-13.185-0.007c-1.283,0.002-1.979,0.723-1.978,2.006
				c0,0.684,0.047,1.369,0.047,2.053C153.022,357.734,153.021,376.176,153.021,394.617z M309.021,412.693c0-0.004,0-0.008,0-0.012
				c6.896,0,13.794-0.002,20.691,0.002c1.228,0,1.151,0.053,1.709,1.115c0.514,0.979,0.536,2.076,0.949,3.064
				c1.032,2.465,2.138,4.902,3.089,7.4c1.108,2.91,2.326,5.775,3.375,8.713c1.294,3.623,2.791,7.174,4.236,10.74
				c0.507,1.252,1.276,2.432,1.679,3.684c0.55,1.703,1.149,3.381,1.797,5.047c0.588,1.512,1.302,1.926,2.925,1.764
				c0.582-0.059,1.17-0.102,1.754-0.09c1.757,0.037,3.52,0.213,5.271,0.133c2.735-0.127,5.462-0.254,8.191,0.047
				c0.452,0.049,0.866-0.074,1.289-0.211c0.654-0.211,0.889-0.668,0.595-1.242c-0.948-1.857-1.153-4.043-2.552-5.703
				c-0.207-0.246-0.289-0.619-0.367-0.949c-0.637-2.664-1.846-5.119-2.87-7.631c-1.193-2.924-2.484-5.809-3.597-8.768
				c-0.595-1.584-1.253-3.145-1.89-4.711c-0.71-1.744-1.376-3.51-2.138-5.23c-0.496-1.121-0.642-2.369-1.254-3.416
				c-1.06-1.813-1.772-3.773-2.574-5.691c-0.333-0.795-0.741-1.582-0.964-2.43c-0.622-2.369-1.601-4.586-2.738-6.748
				c-0.471-0.895-0.904-1.842-1.152-2.816c-0.479-1.887-1.362-3.605-2.061-5.399c-0.616-1.584-1.446-3.104-1.994-4.694
				c-0.906-2.629-1.989-5.184-3.051-7.741c-1.359-3.272-2.619-6.585-4.028-9.837c-0.191-0.441-0.273-0.925-0.49-1.373
				c-0.697-1.436-1.486-2.849-1.98-4.356c-0.666-2.036-1.488-4.003-2.235-6.003c-1.229-3.287-2.883-6.392-3.961-9.747
				c-0.726-2.26-1.76-4.424-2.709-6.608c-0.701-1.612-1.229-3.288-1.889-4.911c-0.654-1.61-1.546-3.124-2.095-4.786
				c-0.201-0.606-0.566-0.835-1.23-0.697c-0.818,0.171-1.649,0.126-2.471-0.087c-0.689-0.179-1.191,0.058-1.624,0.666
				c-0.659,0.926-0.977,2.007-1.443,3.011c-1.368,2.945-2.206,6.118-3.758,8.991c-0.045,0.084-0.063,0.185-0.087,0.279
				c-0.453,1.753-1.323,3.347-1.962,5.03c-1.428,3.77-3.162,7.422-4.627,11.179c-1.249,3.204-2.357,6.458-3.876,9.555
				c-0.917,1.871-1.592,3.863-2.271,5.824c-0.424,1.224-0.898,2.459-1.355,3.661c-0.703,1.848-1.773,3.56-2.409,5.459
				c-0.294,0.878-0.616,1.75-0.979,2.601c-1.298,3.039-2.573,6.085-3.723,9.188c-0.472,1.27-0.902,2.582-1.52,3.783
				c-1.222,2.375-2.017,4.916-3.053,7.359c-0.691,1.631-1.457,3.268-1.742,5.055c-0.028,0.172-0.177,0.352-0.316,0.477
				c-0.46,0.412-0.626,0.988-0.857,1.52c-0.948,2.188-1.702,4.451-2.66,6.637c-1.266,2.889-2.21,5.908-3.558,8.771
				c-0.806,1.713-1.263,3.576-2.059,5.307c-0.405,0.879-0.897,1.711-1.193,2.66c-0.695,2.225-1.575,4.398-2.486,6.535
				c-0.82,1.922-1.612,3.867-2.524,5.756c-0.783,1.621-0.105,2.545,1.689,2.461c0.194-0.008,0.385-0.061,0.579-0.086
				c0.779-0.104,1.556-0.104,2.337,0.002c1.326,0.178,1.885-0.113,2.398-1.34c0.806-1.93,1.584-3.871,2.335-5.824
				c0.437-1.135,0.723-2.332,1.212-3.441c0.396-0.898,0.497-1.943,1.001-2.721c1.186-1.826,1.846-3.859,2.55-5.863
				c0.433-1.234,0.934-2.453,1.351-3.695c0.27-0.805,0.443-1.717,0.974-2.412c0.974-1.275,1.31-2.813,1.879-4.254
				c0.767-1.938,1.471-3.902,2.236-5.842c0.604-1.529,1.337-3.01,1.871-4.563c0.519-1.506,0.439-1.543,2.01-1.545
				C295.421,412.691,302.221,412.693,309.021,412.693z M243.234,511.256c0.003,0,0.007,0,0.01,0c0-7.428,0-14.854,0-22.281
				c0-0.438,0.035-0.877-0.179-1.291c-0.166-0.32-0.343-0.551-0.769-0.545c-1.66,0.021-3.322-0.027-4.981,0.025
				c-0.925,0.029-1.224,0.482-1.156,1.443c0.027,0.389,0.05,0.779,0.05,1.17c0.001,13.777,0.005,27.557-0.018,41.336
				c-0.001,0.967,0.156,1.953-0.146,2.91c-0.147,0.467,0.02,0.719,0.5,0.859c0.478,0.141,0.95,0.195,1.442,0.188
				c1.219-0.021,2.44-0.072,3.657-0.025c1.459,0.055,1.592-0.035,1.592-1.51C243.234,526.109,243.234,518.682,243.234,511.256z
				 M182.424,511.531c0.003,0,0.006,0,0.009,0c0-7.092-0.003-14.184,0.004-21.277c0-0.729,0.138-1.467,0.068-2.186
				c-0.113-1.174-0.667-1.539-1.926-1.434c-0.905,0.076-1.801,0.988-1.706,1.838c0.254,2.277,0.099,4.563,0.171,6.844
				c0.062,1.947-0.079,3.902-0.17,5.852c-0.092,1.959,0.238,3.902,0.181,5.855c-0.117,4.055-0.225,8.107-0.178,12.164
				c0.005,0.439,0.002,0.881,0.04,1.316c0.044,0.504,0.481,1.15-0.177,1.428c-0.609,0.258-0.895-0.434-1.223-0.826
				c-1.652-1.979-3.174-4.082-4.971-5.918c-1.429-1.459-2.27-3.424-4.043-4.563c-0.15-0.098-0.21-0.324-0.33-0.477
				c-0.839-1.064-1.594-2.215-2.543-3.172c-2.13-2.146-3.657-4.785-5.808-6.918c-0.607-0.604-1.257-1.201-1.824-1.871
				c-0.509-0.602-0.664-1.395-1.304-1.916c-0.87-0.709-1.559-1.613-2.222-2.52c-0.633-0.865-1.183-1.801-2.248-2.232
				c-0.121-0.049-0.256-0.184-0.291-0.305c-0.489-1.684-1.989-2.592-2.968-3.896c-0.564-0.752-1.424-0.822-2.215-0.975
				c-0.639-0.123-1.453,0.77-1.314,1.438c0.277,1.33,0.015,2.662,0.17,4.01c0.351,3.043-0.035,6.123-0.056,9.188
				c-0.015,2.068-0.086,4.16-0.11,6.234c-0.082,7.287,0.004,14.576-0.058,21.863c-0.015,1.691,0.636,3.369,0.035,5.08
				c-0.167,0.475,0.796,1.555,1.261,1.615c0.765,0.098,1.85-0.686,1.926-1.422c0.041-0.387,0.021-0.781,0.021-1.172
				c-0.004-7.189-0.01-14.379-0.014-21.57c-0.002-3.65-0.001-7.303,0.003-10.953c0-0.285-0.027-0.615,0.345-0.717
				c0.27-0.072,0.459,0.105,0.622,0.291c0.097,0.107,0.166,0.242,0.258,0.354c1.543,1.877,3.26,3.6,4.703,5.576
				c1.054,1.443,2.411,2.664,3.632,3.986c0.196,0.211,0.449,0.352,0.599,0.629c0.583,1.08,1.419,1.965,2.25,2.859
				c1.391,1.5,2.609,3.146,3.991,4.662c1.703,1.867,3.102,4.012,4.817,5.867c2.679,2.896,5.101,6.008,7.719,8.953
				c0.73,0.822,1.216,1.83,2.198,2.469c0.716,0.465,1.43,0.402,2.097,0.211c0.687-0.195,0.527-0.955,0.58-1.521
				c0.018-0.195,0.001-0.391,0.001-0.588C182.424,526.301,182.424,518.916,182.424,511.531z M300.688,500.203
				c1.283,0.934,2.297,2.066,3.104,3.336c0.473,0.742,1.367,0.965,1.753,1.686c0.467,0.875,1.145,1.564,1.733,2.336
				c1.102,1.441,2.565,2.578,3.622,4.018c1.879,2.561,4.043,4.871,6.049,7.318c0.724,0.885,1.655,1.625,2.191,2.648
				c0.374,0.717,0.757,1.318,1.526,1.678c0.372,0.174,0.686,0.553,0.933,0.904c1.231,1.746,2.399,3.521,4.069,4.932
				c0.599,0.504,1.105,1.217,1.577,1.891c1.144,1.635,2.46,3.102,3.957,4.426c0.638,0.563,1.302,0.729,2.005,0.371
				c0.711-0.361,0.898-1.031,0.896-1.854c-0.031-13.744-0.033-27.49-0.038-41.236c-0.001-1.32,0.04-2.641,0.029-3.961
				c-0.011-1.504-0.446-1.904-1.951-1.871c-1.195,0.027-1.536,0.357-1.615,1.586c-0.019,0.293-0.011,0.586-0.011,0.879
				c0,10.469,0.001,20.938,0,31.404c0,0.293,0.021,0.592-0.028,0.879c-0.08,0.467-0.38,0.551-0.734,0.279
				c-0.227-0.174-0.398-0.422-0.585-0.646c-1.456-1.742-2.805-3.592-4.394-5.201c-1.715-1.738-3.313-3.592-4.833-5.463
				c-1.993-2.453-4.09-4.822-6.061-7.291c-0.692-0.867-1.635-1.52-2.136-2.559c-0.321-0.666-0.848-1.186-1.386-1.691
				c-0.496-0.467-0.972-0.959-1.423-1.471c-1.115-1.262-1.802-2.893-3.291-3.84c-0.159-0.1-0.276-0.273-0.399-0.426
				c-1.52-1.891-3.032-3.785-4.556-5.67c-0.838-1.037-2.783-1.385-3.858-0.68c-0.206,0.135-0.587,0.215-0.411,0.643
				c0.437,1.063,0.296,2.199,0.3,3.291c0.038,10.42,0.03,20.838,0.027,31.258c0,3.57,0.027,7.143-0.05,10.713
				c-0.051,2.365-0.125,2.363,2.072,2.656c1.035,0.139,1.425-0.145,1.56-1.188c0.049-0.387,0.017-0.781,0.017-1.174
				c0.001-10.564,0.001-21.131,0.009-31.697C300.359,501.047,300.224,500.635,300.688,500.203z M402.478,485.779
				c-0.512,0.08-1.111,0.375-1.438,1.158c-1.021,2.451-2.036,4.904-3.13,7.324c-0.641,1.418-1.022,2.92-1.549,4.373
				c-0.381,1.051-0.811,2.082-1.292,3.07c-0.999,2.047-1.564,4.281-2.743,6.246c-0.023,0.039-0.017,0.096-0.027,0.143
				c-0.28,1.186-0.695,2.307-1.293,3.381c-0.445,0.799-0.819,1.662-1.072,2.541c-0.483,1.682-1.133,3.285-1.967,4.816
				c-0.163,0.299-0.372,0.559-0.401,0.924c-0.1,1.236-0.797,2.293-1.237,3.395c-0.749,1.877-1.652,3.709-2.466,5.568
				c-0.54,1.234-0.92,2.549-1.262,3.854c-0.16,0.613-0.161,1.24-0.651,1.738c-0.453,0.459-0.106,0.82,0.276,1.072
				c0.685,0.447,2.939,0.063,3.527-0.563c0.178-0.189,0.227-0.42,0.254-0.668c0.146-1.328,0.735-2.527,1.303-3.684
				c0.726-1.482,1.325-3.031,1.837-4.561c0.71-2.119,1.896-4.025,2.482-6.174c0.152-0.563,0.588-0.766,1.081-0.854
				c0.381-0.068,0.778-0.059,1.169-0.059c4.305-0.008,8.608-0.014,12.913-0.014c0.391,0,0.796-0.031,1.167,0.063
				c0.466,0.117,0.954,0.283,1.162,0.801c1.03,2.564,2.139,5.102,3.054,7.707c0.581,1.654,1.218,3.273,2.032,4.816
				c0.279,0.529,0.478,1.074,0.615,1.635c0.367,1.506,0.772,1.758,2.328,1.59c1.504-0.164,3.094-0.395,4.504,0.096
				c0.991,0.346,1.34-0.277,1.884-0.6c0.595-0.355,0.293-0.973,0.096-1.459c-1.076-2.658-2.055-5.365-3.308-7.938
				c-0.896-1.836-1.392-3.803-2.25-5.643c-0.898-1.928-1.408-4.031-2.611-5.824c-0.167-0.248-0.303-0.5-0.351-0.795
				c-0.217-1.342-0.845-2.559-1.233-3.848c-0.653-2.17-1.763-4.197-2.624-6.309c-0.924-2.266-2.148-4.412-2.691-6.83
				c-0.051-0.225-0.205-0.443-0.358-0.625c-0.267-0.313-0.334-0.686-0.451-1.061c-0.371-1.182-0.661-2.418-1.236-3.498
				c-0.668-1.254-1.198-2.551-1.724-3.857C404.36,486.145,403.922,485.811,402.478,485.779z"/>
			<path fill-rule="evenodd" clip-rule="evenodd" fill="#FFFFFF" d="M83.268,455.654c-0.658,0.035-1.316,0.07-1.974,0.105
				c-1.065-0.068-2.11,0.145-3.162,0.248c-0.096,0.008-0.173,0.201-0.259,0.309c-2.958-0.002-5.915-0.004-8.873-0.006
				c-0.338-0.494-0.724-0.863-1.379-0.523c-0.655-0.043-1.311-0.084-1.967-0.127c-0.945-0.506-1.874-1.076-3.025-0.75
				c-0.264-0.037-0.528-0.074-0.792-0.111c-0.609-0.783-1.388-1.041-2.343-0.76c-0.156-0.033-0.312-0.066-0.467-0.1
				c-0.164-0.586-0.728-0.547-1.148-0.736c-2.415-1.088-5.006-1.785-7.227-3.311c-0.404-0.277-0.893-0.602-1.472-0.391
				c-0.053-0.055-0.111-0.102-0.174-0.141c0.068-0.514-0.363-0.631-0.674-0.826c-0.86-0.541-1.73-1.066-2.596-1.598
				c-0.21-0.129-0.425-0.232-0.668-0.072c-0.059-0.047-0.123-0.088-0.192-0.121c-0.508-0.893-1.286-1.488-2.305-1.768l-0.027-0.027
				c0.12-0.371-0.167-0.512-0.388-0.691c-0.832-0.672-1.699-1.307-2.49-2.025c-3.696-3.357-6.892-7.146-9.736-11.248
				c-1.898-2.738-3.321-5.729-4.786-8.697c-0.966-1.961-1.899-3.939-2.476-6.066c-0.559-2.063-1.155-4.115-1.761-6.166
				c-0.101-0.342-0.069-0.814-0.575-0.924c-0.023-0.16-0.046-0.32-0.069-0.48c0.328-0.348,0.218-0.629-0.13-0.875
				c-0.03-0.27-0.061-0.539-0.091-0.809c0.323-0.797,0.114-1.441-0.557-1.953c-0.059-0.939-0.117-1.879-0.176-2.816
				c0.271-0.16,0.188-0.404,0.166-0.643c-0.133-1.453-0.221-2.91-0.373-4.363c-0.29-2.776,0.011-5.54,0.359-8.299
				c0.118-0.933,0.344-1.903-0.074-2.836c0.028-0.254,0.057-0.509,0.085-0.764c0.428-0.127,0.401-0.508,0.45-0.833
				c0.39-2.611,1.121-5.148,1.778-7.694c0.582-2.256,1.222-4.539,2.196-6.644c1.367-2.955,2.755-5.912,4.403-8.736
				c2.348-4.023,5.195-7.677,8.364-11.052c2.248-2.394,4.77-4.522,7.438-6.486c3.19-2.349,6.629-4.242,10.156-5.977
				c2.094-1.03,4.371-1.654,6.616-2.314c0.43-0.127,1.041-0.046,1.05-0.766c0.502-0.269,1.068-0.136,1.594-0.255
				c1.097,0.389,1.915-0.18,2.723-0.789c0.658-0.031,1.316-0.061,1.974-0.092c0.397,0.308,0.863,0.232,1.264,0.107
				c1.901-0.592,3.856-0.518,5.806-0.543c0.324-0.004,0.694,0.121,0.938-0.231c1.529,0.032,3.058,0.064,4.587,0.096
				c0.765,1.055,1.799,0.811,2.829,0.586c0.268,0.03,0.535,0.06,0.803,0.09c0.665,0.631,1.543,0.741,2.375,0.938
				c4.01,0.945,7.93,2.229,11.507,4.241c3.302,1.857,6.557,3.83,9.453,6.364c1.836,1.606,3.694,3.192,5.34,4.975
				c2.709,2.932,5.186,6.067,7.263,9.495c0.785,1.294,1.727,2.514,2.352,3.879c1.555,3.398,3.218,6.746,4.409,10.313
				c0.917,2.745,1.498,5.552,2.135,8.356c0.468,2.057,0.538,4.157,0.767,6.242c0.395,3.607,0.693,7.2,0.093,10.804
				c-0.267,1.602,0.033,3.25-0.357,4.816c-0.461,1.85-0.533,3.762-1.078,5.594c-0.528,1.779-0.877,3.609-1.43,5.379
				c-0.814,2.605-1.992,5.074-3.149,7.535c-1.806,3.84-3.951,7.498-6.557,10.863c-3.273,4.229-6.941,8.072-11.222,11.293
				c-0.703,0.529-1.28,1.213-2.059,1.637c-1.712,0.932-3.341,2-5.048,2.947c-3.511,1.945-7.091,3.668-11.016,4.592
				c-0.452,0.105-0.823,0.301-0.96,0.785c-0.354,0.035-0.708,0.072-1.063,0.107C85.07,454.561,84.182,455.162,83.268,455.654z
				 M39.195,395.154c0.08,8.254-0.208,16.518,0.87,24.74c0.433,3.301,0.963,6.543,2.314,9.633c1.719,3.934,3.417,7.822,6.28,11.146
				c1.707,1.98,3.583,3.719,5.604,5.32c2.937,2.33,6.339,3.801,9.832,5.082c1.827,0.668,3.764,1.24,5.63,1.275
				c4.109,0.074,8.253,0.654,12.354-0.467c1.454-0.398,2.955-0.682,4.356-1.232c2.954-1.16,5.764-2.566,8.349-4.48
				c2.498-1.85,4.717-3.973,6.611-6.373c2.954-3.74,4.929-8.033,6.353-12.59c1.111-3.557,1.736-7.217,2.193-10.885
				c0.434-3.479,0.566-7.012,0.584-10.523c0.041-8.209,0.317-16.421-0.152-24.629c-0.229-4.024,0.078-8.088-0.954-12.049
				c0.191-1.856-0.579-3.55-0.944-5.308c-0.156-0.748-0.461-1.479-0.615-2.243c-0.425-2.106-1.114-4.17-2.098-6.034
				c-1.378-2.611-2.978-5.114-4.883-7.423c-2.848-3.449-6.365-5.986-10.268-8.041c-2.282-1.202-4.784-1.823-7.233-2.605
				c-2.474-0.79-5.001-0.869-7.503-1.055c-3.262-0.242-6.5,0.288-9.688,1.102c-2.183,0.557-4.249,1.351-6.303,2.273
				c-4.091,1.838-7.467,4.574-10.381,7.907c-1.568,1.793-2.943,3.736-4.127,5.828c-1.112,1.965-1.939,4.045-2.792,6.116
				c-0.778,1.89-1.328,3.854-1.735,5.869c-0.262,1.296-0.402,2.6-0.614,3.897c-0.687,4.206-0.911,8.448-1.016,12.692
				C39.111,386.447,39.195,390.802,39.195,395.154z"/>
			<path fill-rule="evenodd" clip-rule="evenodd" fill="#FFFFFF" d="M395.338,342.859c0.044,0.081,0.094,0.157,0.151,0.229
				c-0.19,1.067-0.062,1.221,1.032,1.222l0.014,0.014c-0.114,0.432-0.049,0.728,0.499,0.659c0.345,0.354,0.689,0.708,1.034,1.063
				c-0.223,0.674-0.009,1.026,0.729,0.991c0.244,0.258,0.488,0.517,0.732,0.774c-0.231,0.463-0.106,0.708,0.429,0.704
				c0.62,0.657,1.239,1.313,1.859,1.97c-0.002,0.593,0.092,1.142,0.506,1.619c1.215,1.397,2.404,2.815,3.61,4.219
				c2.219,2.585,4.46,5.152,6.658,7.755c2.29,2.712,4.477,5.509,6.83,8.169c1.484,1.677,2.864,3.445,4.339,5.13
				c1.282,1.466,2.362,3.119,3.848,4.394c0.491,0.421,0.986,0.864,1.261,1.389c0.83,1.591,2.202,2.717,3.295,4.078
				c1.186,1.475,2.503,2.843,3.72,4.293c1.217,1.449,2.358,2.96,3.573,4.411c1.564,1.869,3.16,3.711,4.764,5.547
				c0.509,0.582,0.903,1.299,1.456,1.785c1.84,1.623,3.313,3.578,4.802,5.471c2.02,2.568,4.25,4.947,6.286,7.496
				c1.605,2.008,3.322,3.928,5.019,5.863c1.537,1.752,3.098,3.486,4.68,5.199c0.537,0.584,1.293,0.613,1.682,0.172
				c0.475-0.537,0.353-1.75-0.246-2.453c0.006-1.318,0.011-2.639,0.016-3.957c0.871-0.418,0.436-1.209,0.437-1.803
				c0.026-24.583,0.022-49.167,0.021-73.75c0-0.538-0.003-1.076-0.031-1.612c-0.014-0.249-0.114-0.475-0.425-0.491
				c-0.002-1.807-0.004-3.613-0.006-5.42c0.119-0.061,0.338-0.113,0.343-0.182c0.061-0.768,0.409-1.432,0.708-2.116
				c0.209-0.006,0.418-0.012,0.627-0.019c0.553,0.599,0.877,0.599,1.425,0c0.211,0,0.421,0,0.632,0
				c0.008,0.146,0.018,0.3,0.186,0.35c1.533,0.457,1.533,0.456,1.546,1.987c0.002,0.245,0.002,0.489,0.002,0.734
				c0.003,38.057,0.005,76.113,0.007,114.17c0,0.342-0.003,0.686-0.027,1.027c-0.018,0.256-0.149,0.447-0.39,0.572
				c-0.776,0.398-3.421,0.037-4.056-0.631c-0.968-1.02-1.954-2.035-2.802-3.152c-1.445-1.904-3.051-3.676-4.652-5.432
				c-1.613-1.768-2.896-3.783-4.574-5.508c-1.168-1.201-2.155-2.621-3.274-3.904c-1.602-1.838-3.147-3.723-4.728-5.578
				c-1.706-2.002-3.395-4.021-5.146-5.98c-1.461-1.637-2.786-3.377-4.178-5.066c-1.734-2.107-3.543-4.152-5.354-6.193
				c-1.327-1.496-2.424-3.184-3.857-4.586c-0.837-0.818-1.646-1.703-2.3-2.631c-1.414-2.008-3.217-3.662-4.718-5.586
				c-1.826-2.34-3.929-4.462-5.771-6.79c-1.755-2.217-3.72-4.248-5.48-6.459c-2.026-2.545-4.195-4.977-6.288-7.469
				c-0.753-0.896-1.494-1.804-2.184-2.749c-0.363-0.497-1.017-0.588-1.34-1.105c-0.986-1.576-2.213-2.952-3.461-4.325
				c-1.402-1.543-2.771-3.135-3.982-4.829c-0.859-1.201-1.758-2.321-2.884-3.269c-0.334-0.282-0.677-0.58-0.923-0.935
				c-0.425-0.614-0.898-1.44-1.655-1.159c-0.705,0.263-0.63,1.229-0.642,1.963c0,0.049,0.002,0.098,0.002,0.147
				c0.007,29.154,0.013,58.308,0.02,87.462c0,0.488-0.012,0.979-0.005,1.467c0.009,0.605-0.302,0.91-0.884,0.928
				c-0.733,0.023-1.467,0.023-2.2,0.02c-1.861-0.008-1.862-0.01-1.862-1.854c0.001-26.316,0-52.633,0.005-78.951
				c0.002-12.568,0.015-25.137,0.021-37.706c1.488-0.15,2.977-0.251,4.463,0.012c0.168,1.447,1.235,2.265,2.21,3.142
				c0.154,0.139,0.354,0.071,0.513-0.063c0.194,0.229,0.39,0.458,0.584,0.687c-0.254,0.515-0.105,0.745,0.475,0.669
				c0.321,0.369,0.644,0.737,0.966,1.106c0.101,0.905,0.382,1.223,1.368,1.549c0.038,0.069,0.084,0.132,0.139,0.189
				C394.297,342.69,394.648,342.924,395.338,342.859z"/>
			<path fill-rule="evenodd" clip-rule="evenodd" d="M153.021,394.617c0-18.441,0-36.883-0.002-55.324
				c0-0.685-0.047-1.369-0.047-2.053c0-1.284,0.695-2.004,1.978-2.006c4.395-0.007,8.79,0,13.185,0.007
				c0.341,0,0.688,0.001,1.022,0.06c1.161,0.204,1.435,0.57,1.435,1.792c-0.006,16.093-0.011,32.187-0.011,48.28
				c0,0.388,0.007,0.788,0.098,1.161c0.14,0.573,0.498,0.94,1.15,0.915c0.342-0.014,0.685,0,1.027,0c18.099,0,36.198,0,54.297-0.001
				c2.243,0,2.235-0.002,2.235-2.255c-0.002-16.044-0.002-32.088,0.001-48.133c0-1.336,0.407-1.795,1.726-1.808
				c1.169-0.011,2.345,0.196,3.507,0.125c3.372-0.205,6.746-0.09,10.118-0.148c1.667-0.029,2.108,0.399,2.099,2.013
				c-0.02,3.277-0.051,6.554-0.051,9.831c-0.003,34.731,0,69.462,0.001,104.193c0,2.666-0.122,2.75-2.851,2.73
				c-4.011-0.029-8.022-0.002-12.033-0.002c-0.44,0-0.886,0.027-1.318-0.037c-0.708-0.105-1.144-0.525-1.177-1.275
				c-0.018-0.391-0.01-0.783-0.01-1.174c0-18.932,0-37.861-0.001-56.791c0-0.342,0.009-0.687-0.024-1.026
				c-0.044-0.446-0.299-0.711-0.763-0.732c-0.342-0.015-0.685-0.022-1.027-0.022c-18.294-0.001-36.589-0.001-54.884,0
				c-0.342,0-0.69-0.024-1.025,0.029c-0.708,0.114-1.154,0.483-1.132,1.275c0.025,0.88,0.031,1.76,0.031,2.641
				c0.003,18.246,0.003,36.492,0.004,54.738c0,0.293,0.016,0.588-0.007,0.879c-0.076,0.975-0.469,1.414-1.467,1.477
				c-0.975,0.063-1.956,0.025-2.934,0.025c-3.571,0-7.142-0.002-10.712-0.008c-0.391,0-0.788,0.012-1.171-0.049
				c-0.833-0.135-1.185-0.521-1.26-1.361c-0.035-0.387-0.012-0.781-0.012-1.172c0-18.932,0-37.861,0-56.793
				C153.019,394.617,153.021,394.617,153.021,394.617z M246.24,395.111c-0.001,0-0.002,0-0.003,0
				c0-18.539,0.001-37.078-0.003-55.617c0-0.585-0.019-1.174-0.08-1.756c-0.157-1.49-0.169-1.502-1.695-1.504
				c-3.962-0.006-7.924-0.002-11.887,0.001c-2.38,0.002-2.437,0.046-2.438,2.472c-0.009,15.736-0.016,31.472-0.009,47.208
				c0.001,2.27,0.241,2.376-2.439,2.375c-18.294-0.01-36.588-0.005-54.882-0.004c-0.489,0-0.979-0.002-1.467,0.018
				c-1.371,0.056-1.788-0.373-1.825-1.779c-0.046-1.714,0.256-3.408,0.257-5.116c0.012-13.941,0.009-27.882,0.015-41.823
				c0-0.736-0.052-1.453-0.229-2.175c-0.277-1.122-0.245-1.154-1.414-1.159c-3.13-0.016-6.261-0.008-9.392-0.011
				c-1.174-0.001-2.348-0.029-3.521,0c-0.97,0.024-1.014,0.125-1.17,1.104c-0.215,1.356-0.214,2.72-0.27,4.086
				c-0.077,1.913,0.261,3.794,0.258,5.703c-0.026,22.843,0.004,45.687-0.033,68.53c-0.02,11.881,0.194,23.762-0.197,35.639
				c-0.058,1.746,0.102,1.861,1.795,1.861c4.158,0.002,8.315-0.002,12.473-0.012c1.541-0.004,1.672-0.145,1.695-1.666
				c0.002-0.195,0-0.391,0-0.586c-0.002-16.045-0.003-32.088-0.005-48.133c0-2.887-0.012-5.771-0.002-8.658
				c0.006-1.736,0.262-2.003,1.911-2.003c18.93-0.006,37.861-0.009,56.791-0.009c1.239,0,1.558,0.262,1.796,1.443
				c0.127,0.627,0.177,1.278,0.025,1.893c-0.155,0.632-0.169,1.257-0.169,1.89c0,18.002,0,36.002,0,54.004
				c0,0.244-0.01,0.49,0.005,0.734c0.061,0.928,0.181,1.049,1.159,1.098c0.488,0.023,0.978,0.006,1.467,0.006
				c3.766,0,7.533-0.01,11.299,0.002c2.183,0.006,2.183,0.02,2.183-2.145C246.24,432.385,246.24,413.748,246.24,395.111z"/>
			<path fill-rule="evenodd" clip-rule="evenodd" d="M309.021,412.693c-6.8,0-13.6-0.002-20.399,0.002
				c-1.571,0.002-1.492,0.039-2.01,1.545c-0.534,1.553-1.267,3.033-1.871,4.563c-0.766,1.939-1.47,3.904-2.236,5.842
				c-0.569,1.441-0.905,2.979-1.879,4.254c-0.531,0.695-0.704,1.607-0.974,2.412c-0.417,1.242-0.917,2.461-1.351,3.695
				c-0.704,2.004-1.364,4.037-2.55,5.863c-0.504,0.777-0.606,1.822-1.001,2.721c-0.489,1.109-0.776,2.307-1.212,3.441
				c-0.751,1.953-1.53,3.895-2.335,5.824c-0.513,1.227-1.072,1.518-2.398,1.34c-0.781-0.105-1.558-0.105-2.337-0.002
				c-0.194,0.025-0.385,0.078-0.579,0.086c-1.795,0.084-2.473-0.84-1.689-2.461c0.912-1.889,1.705-3.834,2.524-5.756
				c0.912-2.137,1.792-4.311,2.486-6.535c0.296-0.949,0.789-1.781,1.193-2.66c0.796-1.73,1.253-3.594,2.059-5.307
				c1.347-2.863,2.292-5.883,3.558-8.771c0.958-2.186,1.712-4.449,2.66-6.637c0.23-0.531,0.396-1.107,0.857-1.52
				c0.139-0.125,0.289-0.305,0.316-0.477c0.285-1.787,1.05-3.424,1.742-5.055c1.036-2.443,1.831-4.984,3.053-7.359
				c0.618-1.201,1.048-2.514,1.52-3.783c1.15-3.102,2.424-6.148,3.723-9.188c0.363-0.851,0.686-1.723,0.979-2.601
				c0.636-1.899,1.706-3.612,2.409-5.459c0.457-1.202,0.931-2.437,1.355-3.661c0.679-1.96,1.354-3.953,2.271-5.824
				c1.519-3.098,2.627-6.352,3.876-9.555c1.465-3.757,3.199-7.41,4.627-11.179c0.639-1.683,1.509-3.276,1.962-5.03
				c0.024-0.094,0.042-0.194,0.087-0.279c1.552-2.874,2.39-6.046,3.758-8.991c0.467-1.004,0.784-2.084,1.443-3.011
				c0.433-0.608,0.935-0.844,1.624-0.666c0.821,0.213,1.652,0.258,2.471,0.087c0.664-0.139,1.029,0.091,1.23,0.697
				c0.549,1.662,1.44,3.176,2.095,4.786c0.659,1.623,1.188,3.299,1.889,4.911c0.949,2.184,1.983,4.348,2.709,6.608
				c1.078,3.354,2.731,6.459,3.961,9.747c0.747,2,1.569,3.967,2.235,6.003c0.494,1.507,1.283,2.921,1.98,4.356
				c0.217,0.447,0.299,0.931,0.49,1.373c1.409,3.251,2.669,6.565,4.028,9.837c1.062,2.557,2.145,5.111,3.051,7.741
				c0.548,1.589,1.378,3.109,1.994,4.694c0.698,1.794,1.582,3.512,2.061,5.399c0.248,0.975,0.682,1.922,1.152,2.816
				c1.138,2.162,2.116,4.379,2.738,6.748c0.223,0.848,0.631,1.635,0.964,2.43c0.802,1.918,1.515,3.879,2.574,5.691
				c0.612,1.047,0.758,2.295,1.254,3.416c0.762,1.721,1.428,3.486,2.138,5.23c0.637,1.566,1.295,3.127,1.89,4.711
				c1.112,2.959,2.403,5.844,3.597,8.768c1.024,2.512,2.233,4.967,2.87,7.631c0.078,0.33,0.16,0.703,0.367,0.949
				c1.398,1.66,1.604,3.846,2.552,5.703c0.294,0.574,0.06,1.031-0.595,1.242c-0.423,0.137-0.837,0.26-1.289,0.211
				c-2.729-0.301-5.456-0.174-8.191-0.047c-1.751,0.08-3.514-0.096-5.271-0.133c-0.584-0.012-1.172,0.031-1.754,0.09
				c-1.623,0.162-2.337-0.252-2.925-1.764c-0.647-1.666-1.247-3.344-1.797-5.047c-0.402-1.252-1.172-2.432-1.679-3.684
				c-1.445-3.566-2.942-7.117-4.236-10.74c-1.049-2.938-2.267-5.803-3.375-8.713c-0.951-2.498-2.057-4.936-3.089-7.4
				c-0.413-0.988-0.436-2.086-0.949-3.064c-0.558-1.063-0.481-1.115-1.709-1.115c-6.897-0.004-13.795-0.002-20.691-0.002
				C309.021,412.686,309.021,412.689,309.021,412.693z M356.444,453.26c0,0.008,0,0.014,0,0.021c2.592,0,5.185,0.014,7.776-0.008
				c0.848-0.008,1.128-0.336,0.802-1.086c-0.425-0.975-0.555-2.072-1.087-2.967c-0.569-0.955-0.857-2.029-1.274-3.016
				c-0.764-1.807-1.41-3.676-2.286-5.436c-0.272-0.549-0.063-1.154-0.45-1.668c-0.867-1.15-0.756-2.768-1.804-3.867
				c-0.229-0.242-0.195-0.736-0.284-1.113c-0.055-0.236-0.051-0.514-0.179-0.701c-0.975-1.42-1.429-3.039-1.858-4.674
				c-0.074-0.279-0.136-0.598-0.309-0.813c-1.37-1.703-1.749-3.859-2.608-5.791c-0.615-1.383-1.169-2.826-1.57-4.324
				c-0.392-1.461-1.089-2.855-1.777-4.217c-0.68-1.342-1.165-2.742-1.696-4.143c-0.666-1.756-1.498-3.461-2.242-5.197
				c-0.607-1.416-0.756-2.979-1.582-4.318c-0.631-1.025-1.199-2.088-1.539-3.281c-0.527-1.858-1.397-3.597-1.921-5.474
				c-0.557-1.994-1.677-3.786-2.444-5.723c-0.938-2.368-1.888-4.75-2.954-7.071c-0.302-0.656-0.625-1.298-0.878-1.977
				c-1.063-2.846-2.062-5.719-3.241-8.516c-0.808-1.914-1.542-3.868-2.416-5.737c-0.876-1.872-1.181-3.925-2.19-5.739
				c-0.628-1.129-0.863-2.482-1.517-3.593c-1.358-2.311-2.06-4.891-3.113-7.32c-0.779-1.795-1.593-3.607-2.167-5.524
				c-0.574-1.917-1.492-3.753-2.107-5.685c-0.178-0.557-0.525-0.915-1.179-0.893c-0.338,0.011-0.679-0.065-1.018-0.105
				c-1.353-0.159-2.286,0.289-2.779,1.574c-0.383,0.998-0.853,1.964-1.182,2.974c-0.513,1.575-1.083,3.117-1.768,4.628
				c-0.78,1.723-1.462,3.491-2.163,5.249c-0.682,1.708-1.313,3.437-2.005,5.141c-1.278,3.146-2.647,6.255-3.861,9.425
				c-1.18,3.082-2.521,6.098-3.75,9.158c-1.227,3.054-2.072,6.272-3.734,9.166c-0.414,0.72-0.893,1.574-0.96,2.422
				c-0.108,1.369-0.836,2.485-1.282,3.7c-0.955,2.604-2.139,5.125-3.22,7.684c-0.678,1.606-1.361,3.209-2,4.831
				c-0.642,1.629-1.134,3.324-1.871,4.906c-0.738,1.582-1.273,3.242-2.02,4.824c-0.76,1.611-1.118,3.408-2.139,4.922
				c-0.159,0.234-0.227,0.537-0.31,0.818c-0.66,2.199-1.532,4.32-2.385,6.445c-0.959,2.391-2.04,4.734-3.076,7.092
				c-1.029,2.342-1.749,4.82-2.772,7.164c-1.032,2.363-1.989,4.75-2.922,7.152c-1.218,3.135-2.548,6.227-3.818,9.342
				c-0.373,0.914-0.219,1.195,0.702,1.225c1.124,0.033,2.249,0.008,3.374-0.008c0.34-0.006,0.799-0.023,0.84-0.424
				c0.094-0.92,0.737-1.578,1.013-2.412c0.549-1.66,1.099-3.334,1.833-4.916c1.418-3.055,2.6-6.205,3.754-9.357
				c1.409-3.846,3.29-7.498,4.545-11.398c0.463-1.441,1.105-2.805,1.692-4.193c1-2.371,1.916-4.775,2.824-7.182
				c0.307-0.814,0.811-1.166,1.664-1.08c0.29,0.031,0.586,0,0.879,0c13.841-0.002,27.682,0.018,41.521-0.037
				c1.333-0.006,1.972,0.57,2.415,1.643c0.798,1.934,1.668,3.84,2.363,5.809c1.004,2.84,2.063,5.656,3.27,8.412
				c1.487,3.395,2.545,6.953,4.044,10.346c1.375,3.113,2.354,6.391,3.767,9.496c0.624,1.373,1.166,2.783,1.699,4.193
				c0.445,1.176,0.416,1.211,1.596,1.219C351.554,453.27,353.999,453.26,356.444,453.26z"/>
			<path fill-rule="evenodd" clip-rule="evenodd" d="M383.816,334.652c-0.007,12.568-0.02,25.137-0.021,37.706
				c-0.005,26.318-0.004,52.635-0.005,78.951c0,1.844,0.001,1.846,1.862,1.854c0.733,0.004,1.467,0.004,2.2-0.02
				c0.582-0.018,0.893-0.322,0.884-0.928c-0.007-0.488,0.005-0.979,0.005-1.467c-0.007-29.154-0.013-58.309-0.02-87.462
				c0-0.049-0.002-0.098-0.002-0.147c0.012-0.734-0.063-1.701,0.642-1.963c0.757-0.282,1.23,0.545,1.655,1.159
				c0.246,0.355,0.589,0.653,0.923,0.935c1.126,0.948,2.024,2.068,2.884,3.269c1.211,1.694,2.58,3.286,3.982,4.829
				c1.248,1.373,2.475,2.749,3.461,4.325c0.323,0.518,0.977,0.608,1.34,1.105c0.689,0.944,1.431,1.853,2.184,2.749
				c2.093,2.492,4.262,4.923,6.288,7.469c1.761,2.212,3.726,4.242,5.48,6.459c1.842,2.328,3.944,4.45,5.771,6.79
				c1.501,1.924,3.304,3.578,4.718,5.586c0.653,0.928,1.463,1.813,2.3,2.631c1.434,1.402,2.53,3.09,3.857,4.586
				c1.812,2.041,3.62,4.086,5.354,6.193c1.392,1.689,2.717,3.43,4.178,5.066c1.752,1.959,3.44,3.979,5.146,5.98
				c1.58,1.855,3.126,3.74,4.728,5.578c1.119,1.283,2.106,2.703,3.274,3.904c1.678,1.725,2.961,3.74,4.574,5.508
				c1.602,1.756,3.207,3.527,4.652,5.432c0.848,1.117,1.834,2.133,2.802,3.152c0.635,0.668,3.279,1.029,4.056,0.631
				c0.24-0.125,0.372-0.316,0.39-0.572c0.024-0.342,0.027-0.686,0.027-1.027c-0.002-38.057-0.004-76.113-0.007-114.17
				c0-0.245,0-0.489-0.002-0.734c-0.013-1.531-0.013-1.53-1.546-1.987c-0.168-0.05-0.178-0.204-0.186-0.35
				c1.52-0.552,2.272-0.142,2.402,1.34c0.047,0.534,0.013,1.076,0.013,1.614c0.001,37.181,0.001,74.363,0.003,111.544
				c0,1.223,0.035,2.445,0.016,3.668c-0.012,0.803-0.335,1.209-1.119,1.244c-1.22,0.055-2.444,0.008-3.666-0.027
				c-0.398-0.012-0.839-0.152-1.024-0.498c-0.858-1.586-2.511-2.414-3.571-3.82c-0.665-0.881-1.274-1.869-2.294-2.441
				c-1.355-2.756-4.09-4.402-5.645-7.006c-0.342-0.572-0.83-1.102-1.362-1.502c-0.683-0.516-1.219-1.129-1.645-1.842
				c-1.127-1.889-2.889-3.236-4.191-4.984c-1.656-2.221-3.611-4.215-5.319-6.389c-1.314-1.67-3.046-3.012-4.004-4.963
				c-0.041-0.084-0.111-0.189-0.19-0.215c-1.345-0.432-1.593-1.881-2.518-2.713c-0.901-0.813-1.896-1.66-2.432-2.705
				c-0.902-1.762-2.58-2.773-3.662-4.336c-1.609-2.322-3.797-4.176-5.4-6.502c-0.588-0.854-1.329-1.563-2.001-2.318
				c-1.258-1.412-2.258-3.059-3.754-4.26c-0.189-0.152-0.398-0.316-0.511-0.521c-1.319-2.429-3.408-4.246-5.132-6.345
				c-0.995-1.212-2.04-2.42-3.108-3.589c-1.479-1.617-2.913-3.288-4.287-4.987c-1.889-2.334-3.823-4.635-5.719-6.961
				c-1.312-1.609-2.755-3.147-4.169-4.69c-0.724-0.791-1.036-1.86-1.898-2.55c-1.961-1.568-3.327-3.639-4.712-5.69
				c-0.136-0.201-0.261-0.412-0.417-0.596c-0.132-0.155-0.332-0.228-0.528-0.175c-0.227,0.06-0.249,0.275-0.252,0.471
				c-0.016,1.027-0.037,2.054-0.037,3.081c0.002,1.809,0.027,3.617,0.027,5.426c0.004,26.663,0.006,53.327,0.009,79.989
				c0,0.342,0.02,0.688-0.007,1.027c-0.081,1.053-0.499,1.48-1.566,1.527c-0.977,0.041-1.958,0.051-2.935,0.018
				c-1.323-0.047-1.745-0.488-1.803-1.781c-0.011-0.244-0.002-0.488-0.002-0.734c0-37.865-0.001-75.731-0.002-113.598
				c0-0.88-0.018-1.76-0.016-2.64C383.218,334.856,383.334,334.56,383.816,334.652z"/>
			<path fill-rule="evenodd" clip-rule="evenodd" fill="#FFFFFF" d="M243.234,511.256c0,7.426,0,14.854,0,22.279
				c0,1.475-0.132,1.564-1.592,1.51c-1.217-0.047-2.438,0.004-3.657,0.025c-0.492,0.008-0.964-0.047-1.442-0.188
				c-0.479-0.141-0.646-0.393-0.5-0.859c0.302-0.957,0.145-1.943,0.146-2.91c0.023-13.779,0.019-27.559,0.018-41.336
				c0-0.391-0.023-0.781-0.05-1.17c-0.068-0.961,0.231-1.414,1.156-1.443c1.659-0.053,3.321-0.004,4.981-0.025
				c0.426-0.006,0.604,0.225,0.769,0.545c0.214,0.414,0.179,0.854,0.179,1.291c0.001,7.428,0,14.854,0,22.281
				C243.241,511.256,243.238,511.256,243.234,511.256z"/>
			<path fill-rule="evenodd" clip-rule="evenodd" d="M182.424,511.531c0,7.385,0,14.77,0,22.154c0,0.197,0.017,0.393-0.001,0.588
				c-0.052,0.566,0.107,1.326-0.58,1.521c-0.667,0.191-1.381,0.254-2.097-0.211c-0.982-0.639-1.468-1.646-2.198-2.469
				c-2.618-2.945-5.04-6.057-7.719-8.953c-1.715-1.855-3.114-4-4.817-5.867c-1.382-1.516-2.6-3.162-3.991-4.662
				c-0.831-0.895-1.667-1.779-2.25-2.859c-0.15-0.277-0.403-0.418-0.599-0.629c-1.221-1.322-2.578-2.543-3.632-3.986
				c-1.442-1.977-3.159-3.699-4.703-5.576c-0.093-0.111-0.162-0.246-0.258-0.354c-0.163-0.186-0.352-0.363-0.622-0.291
				c-0.372,0.102-0.345,0.432-0.345,0.717c-0.004,3.65-0.005,7.303-0.003,10.953c0.003,7.191,0.01,14.381,0.014,21.57
				c0,0.391,0.019,0.785-0.021,1.172c-0.076,0.736-1.161,1.52-1.926,1.422c-0.465-0.061-1.428-1.141-1.261-1.615
				c0.601-1.711-0.05-3.389-0.035-5.08c0.062-7.287-0.024-14.576,0.058-21.863c0.024-2.074,0.096-4.166,0.11-6.234
				c0.021-3.064,0.407-6.145,0.056-9.188c-0.155-1.348,0.107-2.68-0.17-4.01c-0.139-0.668,0.675-1.561,1.314-1.438
				c0.791,0.152,1.651,0.223,2.215,0.975c0.979,1.305,2.479,2.213,2.968,3.896c0.035,0.121,0.17,0.256,0.291,0.305
				c1.065,0.432,1.615,1.367,2.248,2.232c0.663,0.906,1.352,1.811,2.222,2.52c0.641,0.521,0.795,1.314,1.304,1.916
				c0.567,0.67,1.216,1.268,1.824,1.871c2.15,2.133,3.678,4.771,5.808,6.918c0.949,0.957,1.705,2.107,2.543,3.172
				c0.12,0.152,0.18,0.379,0.33,0.477c1.774,1.139,2.615,3.104,4.043,4.563c1.796,1.836,3.318,3.939,4.971,5.918
				c0.328,0.393,0.614,1.084,1.223,0.826c0.658-0.277,0.221-0.924,0.177-1.428c-0.038-0.436-0.035-0.877-0.04-1.316
				c-0.046-4.057,0.061-8.109,0.178-12.164c0.057-1.953-0.273-3.896-0.181-5.855c0.092-1.949,0.232-3.904,0.17-5.852
				c-0.072-2.281,0.083-4.566-0.171-6.844c-0.095-0.85,0.801-1.762,1.706-1.838c1.259-0.105,1.813,0.26,1.926,1.434
				c0.07,0.719-0.068,1.457-0.068,2.186c-0.007,7.094-0.004,14.186-0.004,21.277C182.43,511.531,182.427,511.531,182.424,511.531z
				 M146.345,510.996c-0.009,0-0.018,0-0.027,0c0,7.289,0,14.578,0,21.865c0,0.293-0.023,0.588-0.004,0.881
				c0.02,0.301,0.103,0.6,0.467,0.643c0.385,0.047,0.71-0.127,0.781-0.506c0.089-0.475,0.104-0.969,0.104-1.453
				c-0.005-9.539-0.017-19.078-0.025-28.615c-0.001-1.615-0.02-3.229,0.018-4.842c0.021-0.861,0.249-1.002,1.082-0.955
				c0.483,0.029,0.778,0.26,1.08,0.633c1.561,1.924,3.059,3.912,4.769,5.695c2.265,2.361,4.063,5.096,6.276,7.484
				c1.132,1.223,2.03,2.645,3.204,3.805c2.19,2.168,4.129,4.561,6.101,6.902c3.073,3.648,6,7.418,9.263,10.906
				c0.453,0.482,0.784,1.293,1.615,0.943c0.743-0.313,0.464-1.111,0.466-1.707c0.022-5.088,0.017-10.174,0.017-15.262
				c-0.001-9.195-0.004-18.393-0.008-27.588c0-0.391,0-0.783-0.045-1.17c-0.05-0.426-0.263-0.74-0.744-0.752
				c-0.505-0.014-0.678,0.318-0.715,0.748c-0.029,0.34-0.026,0.684-0.026,1.025c-0.003,10.469-0.006,20.936-0.008,31.404
				c0,0.586,0.004,1.174-0.004,1.76c-0.005,0.391,0.023,0.838-0.433,0.996c-0.487,0.172-0.956,0.111-1.331-0.322
				c-0.351-0.406-0.75-0.771-1.098-1.18c-1.646-1.93-3.305-3.85-4.912-5.811c-0.835-1.02-1.824-1.918-2.595-2.963
				c-1.651-2.24-3.795-4.074-5.238-6.479c-0.146-0.242-0.414-0.41-0.613-0.625c-0.829-0.891-1.753-1.711-2.457-2.691
				c-1.54-2.146-3.377-4.037-5.019-6.098c-2.548-3.197-5.345-6.197-8.024-9.291c-0.398-0.459-0.82-0.955-1.455-0.777
				c-0.697,0.195-0.452,0.883-0.452,1.385C146.342,496.324,146.345,503.66,146.345,510.996z"/>
			<path fill-rule="evenodd" clip-rule="evenodd" d="M300.688,500.203c-0.464,0.432-0.329,0.844-0.33,1.213
				c-0.008,10.566-0.007,21.133-0.009,31.697c0,0.393,0.033,0.787-0.017,1.174c-0.135,1.043-0.524,1.326-1.56,1.188
				c-2.197-0.293-2.124-0.291-2.072-2.656c0.077-3.57,0.05-7.143,0.05-10.713c0.002-10.42,0.011-20.838-0.027-31.258
				c-0.004-1.092,0.136-2.229-0.3-3.291c-0.176-0.428,0.205-0.508,0.411-0.643c1.075-0.705,3.02-0.357,3.858,0.68
				c1.524,1.885,3.037,3.779,4.556,5.67c0.123,0.152,0.24,0.326,0.399,0.426c1.489,0.947,2.176,2.578,3.291,3.84
				c0.451,0.512,0.927,1.004,1.423,1.471c0.538,0.506,1.064,1.025,1.386,1.691c0.501,1.039,1.443,1.691,2.136,2.559
				c1.971,2.469,4.067,4.838,6.061,7.291c1.521,1.871,3.118,3.725,4.833,5.463c1.589,1.609,2.938,3.459,4.394,5.201
				c0.187,0.225,0.358,0.473,0.585,0.646c0.354,0.271,0.654,0.188,0.734-0.279c0.049-0.287,0.028-0.586,0.028-0.879
				c0.001-10.467,0-20.936,0-31.404c0-0.293-0.008-0.586,0.011-0.879c0.079-1.229,0.42-1.559,1.615-1.586
				c1.505-0.033,1.94,0.367,1.951,1.871c0.011,1.32-0.03,2.641-0.029,3.961c0.005,13.746,0.007,27.492,0.038,41.236
				c0.002,0.822-0.186,1.492-0.896,1.854c-0.703,0.357-1.367,0.191-2.005-0.371c-1.497-1.324-2.813-2.791-3.957-4.426
				c-0.472-0.674-0.979-1.387-1.577-1.891c-1.67-1.41-2.838-3.186-4.069-4.932c-0.247-0.352-0.561-0.73-0.933-0.904
				c-0.77-0.359-1.152-0.961-1.526-1.678c-0.536-1.023-1.468-1.764-2.191-2.648c-2.006-2.447-4.17-4.758-6.049-7.318
				c-1.057-1.439-2.521-2.576-3.622-4.018c-0.589-0.771-1.267-1.461-1.733-2.336c-0.386-0.721-1.28-0.943-1.753-1.686
				C302.985,502.27,301.971,501.137,300.688,500.203z M333.099,511.227c0.002,0,0.004,0,0.006,0c0-6.994,0.001-13.99-0.002-20.984
				c-0.001-0.537,0.001-1.078-0.052-1.611c-0.05-0.51-0.369-0.779-0.895-0.762s-0.621,0.393-0.648,0.807
				c-0.02,0.291-0.014,0.586-0.014,0.879c-0.001,8.854-0.002,17.707-0.002,26.561c0,2.299,0.008,4.598-0.001,6.896
				c-0.001,0.434,0.008,0.99-0.471,1.115c-0.395,0.105-0.863-0.125-1.188-0.436c-0.245-0.232-0.449-0.52-0.626-0.809
				c-0.335-0.549-0.788-0.988-1.21-1.465c-1.584-1.789-3.261-3.514-4.667-5.436c-1.53-2.092-3.323-3.945-4.968-5.928
				c-2.707-3.262-5.476-6.475-8.214-9.713c-2.643-3.123-5.332-6.207-7.928-9.373c-0.925-1.127-2.046-2.098-2.858-3.328
				c-0.257-0.389-0.583-0.467-1.005-0.406c-0.492,0.072-0.57,0.438-0.683,0.828c-0.181,0.627-0.152,1.258-0.152,1.893
				c-0.002,7.24-0.01,14.479-0.011,21.717c-0.002,6.848-0.001,13.695,0.007,20.545c0,0.535,0.007,1.082,0.119,1.602
				c0.1,0.459,0.483,0.756,0.971,0.75c0.552-0.01,0.727-0.428,0.758-0.902c0.03-0.439,0.031-0.881,0.031-1.32
				c-0.004-9.588-0.01-19.176-0.015-28.762c-0.001-1.467-0.002-2.934,0.011-4.402c0.004-0.523,0.187-0.98,0.746-1.129
				c0.532-0.143,0.755,0.266,1.041,0.619c1.534,1.898,3.062,3.803,4.652,5.654c2.091,2.438,4.223,4.838,6.229,7.35
				c1.488,1.861,3.17,3.557,4.638,5.455c1.271,1.646,2.728,3.176,4.096,4.762c2.639,3.063,5.277,6.123,7.823,9.264
				c0.798,0.984,1.82,1.773,2.505,2.861c0.101,0.16,0.269,0.287,0.428,0.398c0.714,0.504,1.366,0.264,1.499-0.594
				c0.082-0.527,0.046-1.074,0.046-1.611C333.1,525.217,333.099,518.221,333.099,511.227z"/>
			<path fill-rule="evenodd" clip-rule="evenodd" d="M402.478,485.779c1.444,0.031,1.883,0.365,2.318,1.451
				c0.525,1.307,1.056,2.604,1.724,3.857c0.575,1.08,0.865,2.316,1.236,3.498c0.117,0.375,0.185,0.748,0.451,1.061
				c0.153,0.182,0.308,0.4,0.358,0.625c0.543,2.418,1.768,4.564,2.691,6.83c0.861,2.111,1.971,4.139,2.624,6.309
				c0.389,1.289,1.017,2.506,1.233,3.848c0.048,0.295,0.184,0.547,0.351,0.795c1.203,1.793,1.713,3.896,2.611,5.824
				c0.858,1.84,1.354,3.807,2.25,5.643c1.253,2.572,2.231,5.279,3.308,7.938c0.197,0.486,0.499,1.104-0.096,1.459
				c-0.544,0.322-0.893,0.945-1.884,0.6c-1.41-0.49-3-0.26-4.504-0.096c-1.556,0.168-1.961-0.084-2.328-1.59
				c-0.138-0.561-0.336-1.105-0.615-1.635c-0.814-1.543-1.451-3.162-2.032-4.816c-0.915-2.605-2.023-5.143-3.054-7.707
				c-0.208-0.518-0.696-0.684-1.162-0.801c-0.371-0.094-0.776-0.063-1.167-0.063c-4.305,0-8.608,0.006-12.913,0.014
				c-0.391,0-0.788-0.01-1.169,0.059c-0.493,0.088-0.929,0.291-1.081,0.854c-0.586,2.148-1.772,4.055-2.482,6.174
				c-0.512,1.529-1.111,3.078-1.837,4.561c-0.567,1.156-1.156,2.355-1.303,3.684c-0.027,0.248-0.076,0.479-0.254,0.668
				c-0.588,0.625-2.843,1.01-3.527,0.563c-0.383-0.252-0.729-0.613-0.276-1.072c0.49-0.498,0.491-1.125,0.651-1.738
				c0.342-1.305,0.722-2.619,1.262-3.854c0.813-1.859,1.717-3.691,2.466-5.568c0.44-1.102,1.138-2.158,1.237-3.395
				c0.029-0.365,0.238-0.625,0.401-0.924c0.834-1.531,1.483-3.135,1.967-4.816c0.253-0.879,0.627-1.742,1.072-2.541
				c0.598-1.074,1.013-2.195,1.293-3.381c0.011-0.047,0.004-0.104,0.027-0.143c1.179-1.965,1.744-4.199,2.743-6.246
				c0.481-0.988,0.911-2.02,1.292-3.07c0.526-1.453,0.908-2.955,1.549-4.373c1.094-2.42,2.108-4.873,3.13-7.324
				C401.366,486.154,401.966,485.859,402.478,485.779z M419.123,534.787c0-0.014,0-0.029,0-0.043c0.88,0,1.762,0.045,2.638-0.012
				c0.913-0.059,1.126-0.408,0.804-1.238c-0.635-1.635-1.313-3.252-1.943-4.887c-1.192-3.096-2.69-6.064-3.792-9.199
				c-0.483-1.377-0.989-2.748-1.536-4.102c-0.492-1.217-1.091-2.393-1.578-3.613c-0.884-2.217-1.671-4.486-2.643-6.654
				c-2.517-5.613-4.427-11.473-7.036-17.045c-0.286-0.609-0.339-1.426-1.237-1.41c-0.846,0.014-0.954,0.857-1.322,1.395
				c-0.054,0.078-0.07,0.182-0.105,0.271c-0.854,2.178-1.688,4.361-2.564,6.529c-1.041,2.576-2.132,5.129-3.171,7.705
				c-1.439,3.566-2.838,7.15-4.276,10.717c-1.75,4.344-3.493,8.691-5.298,13.014c-0.94,2.25-1.648,4.598-2.79,6.766
				c-0.136,0.258-0.261,0.533-0.32,0.816c-0.159,0.754,0.257,1.121,1.007,0.906c0.625-0.178,0.938-0.652,1.146-1.232
				c1.27-3.533,2.915-6.916,4.19-10.451c0.475-1.318,0.871-2.686,1.52-3.947c0.445-0.867,1.055-1.35,2.065-1.348
				c5.035,0.018,10.07,0.025,15.104,0.002c0.802-0.004,1.294,0.318,1.622,0.996c0.128,0.264,0.262,0.523,0.386,0.789
				c1.948,4.162,3.342,8.543,5.035,12.805c0.955,2.402,0.861,2.441,3.362,2.471C418.635,534.789,418.879,534.787,419.123,534.787z"
				/>
			<path fill-rule="evenodd" clip-rule="evenodd" d="M87.26,454.807c0.137-0.484,0.508-0.68,0.96-0.785
				c3.925-0.924,7.505-2.646,11.016-4.592c1.707-0.947,3.336-2.016,5.048-2.947c0.779-0.424,1.356-1.107,2.059-1.637
				c4.28-3.221,7.948-7.064,11.222-11.293c2.606-3.365,4.751-7.023,6.557-10.863c1.157-2.461,2.335-4.93,3.149-7.535
				c0.553-1.77,0.901-3.6,1.43-5.379c0.544-1.832,0.617-3.744,1.078-5.594c0.39-1.566,0.09-3.215,0.357-4.816
				c0.6-3.604,0.302-7.196-0.093-10.804c-0.229-2.085-0.299-4.185-0.767-6.242c-0.637-2.804-1.219-5.611-2.135-8.356
				c-1.191-3.567-2.854-6.915-4.409-10.313c-0.625-1.366-1.567-2.585-2.352-3.879c-2.078-3.428-4.554-6.563-7.263-9.495
				c-1.646-1.783-3.504-3.369-5.34-4.975c-2.896-2.534-6.151-4.507-9.453-6.364c-3.577-2.011-7.497-3.296-11.507-4.241
				c-0.832-0.196-1.71-0.306-2.375-0.938c0.304-0.431,0.724-0.234,1.058-0.125c2.503,0.818,5.127,1.192,7.586,2.187
				c4.398,1.78,8.611,3.949,12.424,6.732c2.485,1.814,4.844,3.849,6.999,6.125c1.673,1.767,3.352,3.513,4.84,5.437
				c2.063,2.666,3.836,5.522,5.539,8.428c1.461,2.495,2.589,5.119,3.614,7.822c0.725,1.91,1.56,3.777,2.126,5.748
				c0.865,3.006,1.529,6.061,1.844,9.168c0.418,4.13,0.982,8.276,0.578,12.432c-0.429,4.412-0.645,8.867-1.782,13.176
				c-0.369,1.4-0.926,2.791-1.239,4.18c-0.413,1.834-1.388,3.396-1.924,5.158c-0.8,2.633-2.115,5.074-3.501,7.465
				c-1.558,2.688-3.376,5.199-5.233,7.674c-0.899,1.195-1.723,2.576-2.871,3.459c-1.325,1.02-2.252,2.363-3.497,3.424
				c-1.75,1.488-3.577,2.912-5.45,4.191c-1.926,1.316-3.751,2.875-6.018,3.701c-1.128,0.412-2.107,1.186-3.168,1.771
				c-1.118,0.615-2.328,0.932-3.493,1.35c-1.271,0.453-2.492,1.143-3.889,1.213c-0.371,0.02-0.592,0.324-0.904,0.453
				C87.791,455.045,87.508,455.02,87.26,454.807z"/>
			<path fill-rule="evenodd" clip-rule="evenodd" d="M467.899,425.021c0.599,0.703,0.721,1.916,0.246,2.453
				c-0.389,0.441-1.145,0.412-1.682-0.172c-1.582-1.713-3.143-3.447-4.68-5.199c-1.696-1.936-3.413-3.855-5.019-5.863
				c-2.036-2.549-4.267-4.928-6.286-7.496c-1.488-1.893-2.962-3.848-4.802-5.471c-0.553-0.486-0.947-1.203-1.456-1.785
				c-1.604-1.836-3.199-3.678-4.764-5.547c-1.215-1.45-2.356-2.962-3.573-4.411c-1.217-1.45-2.534-2.818-3.72-4.293
				c-1.093-1.36-2.465-2.487-3.295-4.078c-0.274-0.524-0.77-0.967-1.261-1.389c-1.485-1.274-2.565-2.927-3.848-4.394
				c-1.475-1.686-2.854-3.454-4.339-5.13c-2.354-2.66-4.54-5.457-6.83-8.169c-2.198-2.603-4.439-5.169-6.658-7.755
				c-1.206-1.404-2.396-2.822-3.61-4.219c-0.414-0.477-0.508-1.026-0.506-1.619c0.769,0.025,0.993,0.729,1.358,1.183
				c2.569,3.191,5.28,6.259,7.941,9.371c1.171,1.37,2.228,2.843,3.458,4.156c2.201,2.349,4.165,4.898,6.249,7.343
				c2.118,2.485,4.27,4.946,6.331,7.481c1.628,2.002,3.385,3.9,5.015,5.901c1.966,2.414,4.133,4.651,6.055,7.106
				c1.618,2.067,3.404,4.003,5.106,6.005c2.019,2.377,4.024,4.764,6.043,7.141c1.956,2.305,3.979,4.557,5.862,6.918
				c1.608,2.018,3.489,3.801,4.94,5.961c0.804,1.197,1.935,2.174,2.895,3.27c1.125,1.285,2.229,2.588,3.33,3.893
				c0.16,0.191,0.307,0.385,0.542,0.473c0.387,0.141,0.669,0.066,0.75-0.396C467.77,425.869,467.574,425.402,467.899,425.021z"/>
			<path fill-rule="evenodd" clip-rule="evenodd" d="M76.223,332.987c-0.244,0.352-0.614,0.227-0.938,0.231
				c-1.95,0.026-3.904-0.048-5.806,0.543c-0.401,0.125-0.867,0.201-1.264-0.107c0.152-0.516,0.624-0.579,1.031-0.666
				c2.2-0.466,4.43-0.282,6.651-0.246C76.006,332.745,76.114,332.902,76.223,332.987z"/>
			<path fill-rule="evenodd" clip-rule="evenodd" d="M391.002,337.743c-0.158,0.134-0.358,0.201-0.513,0.063
				c-0.975-0.876-2.042-1.695-2.21-3.142c0.137-0.011,0.377-0.067,0.396-0.025C389.216,335.851,390.793,336.288,391.002,337.743z"/>
			<path fill-rule="evenodd" clip-rule="evenodd" d="M77.873,456.316c0.086-0.107,0.163-0.301,0.259-0.309
				c1.052-0.104,2.097-0.316,3.162-0.248c-0.069,0.277-0.093,0.67-0.431,0.682C79.865,456.477,78.846,456.871,77.873,456.316z"/>
			<path fill-rule="evenodd" clip-rule="evenodd" d="M83.268,455.654c0.915-0.492,1.802-1.094,2.93-0.74
				C85.385,455.811,84.456,456.246,83.268,455.654z"/>
			<path fill-rule="evenodd" clip-rule="evenodd" d="M83.639,333.67c-1.03,0.224-2.064,0.468-2.829-0.586
				C81.857,332.777,82.803,332.957,83.639,333.67z"/>
			<path fill-rule="evenodd" clip-rule="evenodd" d="M394.395,341.753c-0.986-0.326-1.268-0.644-1.368-1.549
				C394.039,340.566,394.282,340.842,394.395,341.753z"/>
			<path fill-rule="evenodd" clip-rule="evenodd" d="M396.521,344.311c-1.094-0.001-1.223-0.155-1.032-1.222
				C396.003,343.353,396.466,343.66,396.521,344.311z"/>
			<path fill-rule="evenodd" clip-rule="evenodd" d="M395.338,342.859c-0.689,0.064-1.041-0.169-0.805-0.917
				C395.106,341.98,395.397,342.266,395.338,342.859z"/>
			<path fill-rule="evenodd" clip-rule="evenodd" d="M398.798,347.037c-0.738,0.035-0.952-0.317-0.729-0.991
				C398.652,346.125,398.951,346.415,398.798,347.037z"/>
			<path fill-rule="evenodd" clip-rule="evenodd" d="M392.061,339.099c-0.58,0.076-0.729-0.154-0.475-0.669
				C392.052,338.435,392.238,338.637,392.061,339.099z"/>
			<path fill-rule="evenodd" clip-rule="evenodd" d="M399.959,348.516c-0.535,0.004-0.66-0.241-0.429-0.704
				C400.029,347.829,400.181,348.059,399.959,348.516z"/>
			<path fill-rule="evenodd" clip-rule="evenodd" d="M397.034,344.984c-0.548,0.069-0.613-0.227-0.499-0.659
				C397.031,344.295,397.191,344.519,397.034,344.984z"/>
			<path fill-rule="evenodd" clip-rule="evenodd" d="M39.195,395.154c0-4.353-0.084-8.708,0.024-13.057
				c0.105-4.244,0.329-8.486,1.016-12.692c0.212-1.297,0.353-2.601,0.614-3.897c0.407-2.015,0.957-3.979,1.735-5.869
				c0.853-2.071,1.68-4.15,2.792-6.116c1.184-2.091,2.559-4.035,4.127-5.828c2.915-3.333,6.29-6.069,10.381-7.907
				c2.054-0.922,4.12-1.716,6.303-2.273c3.188-0.813,6.426-1.344,9.688-1.102c2.502,0.186,5.029,0.266,7.503,1.055
				c2.449,0.782,4.951,1.403,7.233,2.605c3.902,2.055,7.419,4.592,10.268,8.041c1.906,2.309,3.505,4.812,4.883,7.423
				c0.984,1.863,1.673,3.927,2.098,6.034c0.154,0.764,0.459,1.495,0.615,2.243c0.365,1.757,1.135,3.451,0.944,5.308
				c1.032,3.96,0.724,8.025,0.954,12.049c0.469,8.208,0.192,16.42,0.152,24.629c-0.018,3.512-0.15,7.045-0.584,10.523
				c-0.457,3.668-1.082,7.328-2.193,10.885c-1.424,4.557-3.399,8.85-6.353,12.59c-1.894,2.4-4.113,4.523-6.611,6.373
				c-2.584,1.914-5.395,3.32-8.349,4.48c-1.401,0.551-2.902,0.834-4.356,1.232c-4.1,1.121-8.245,0.541-12.354,0.467
				c-1.866-0.035-3.803-0.607-5.63-1.275c-3.493-1.281-6.895-2.752-9.832-5.082c-2.021-1.602-3.896-3.34-5.604-5.32
				c-2.863-3.324-4.561-7.213-6.28-11.146c-1.351-3.09-1.881-6.332-2.314-9.633C38.987,411.672,39.275,403.408,39.195,395.154z
				 M109.526,393.528c0.135-5.404-0.034-11.412-0.305-17.419c-0.129-2.87-0.203-5.722-0.774-8.573
				c-0.509-2.541-1.099-5.06-2.024-7.446c-0.787-2.029-1.535-4.098-2.628-6.024c-0.628-1.105-1.418-2.095-2.116-3.128
				c-0.581-0.86-1.114-1.827-1.872-2.557c-1.082-1.043-2.143-2.114-3.228-3.154c-1.824-1.748-4.042-2.849-6.172-4.069
				c-1.413-0.809-2.992-1.362-4.484-2.061c-1.814-0.849-3.73-1.384-5.773-1.337c-0.68,0.015-1.388,0.1-2.038-0.146
				c-1.129-0.428-2.292-0.439-3.47-0.418c-2.44,0.042-4.814,0.747-7.264,0.708c-0.375-0.006-0.752,0.197-1.131,0.296
				c-2.517,0.659-4.824,1.831-7.121,3.001c-1.426,0.727-2.876,1.482-4.124,2.467c-2.244,1.773-4.242,3.829-6.042,6.063
				c-0.396,0.491-0.963,0.905-1.188,1.461c-0.646,1.591-1.723,2.927-2.458,4.466c-1.485,3.113-3.163,6.144-3.347,9.701
				c-0.012,0.239-0.094,0.481-0.176,0.71c-0.805,2.23-0.786,4.609-1.158,6.911c-0.623,3.851-0.567,7.796-0.607,11.68
				c-0.085,8.25-0.455,16.513,0.225,24.761c0.208,2.525,0.209,5.066,0.284,7.602c0.028,0.945,0.582,1.777,0.573,2.713
				c-0.016,1.576,0.175,3.109,0.701,4.6c0.112,0.318,0.116,0.672,0.201,1.002c0.421,1.645,0.572,3.377,1.501,4.861
				c1.081,1.725,1.776,3.643,2.819,5.402c1.599,2.697,3.412,5.225,5.744,7.256c1.633,1.422,3.182,2.99,5.087,4.127
				c0.675,0.402,1.413,0.598,2.086,0.988c1.086,0.631,2.181,1.469,3.35,1.713c1.479,0.309,2.836,0.934,4.308,1.262
				c4.078,0.91,8.146,0.674,12.245,0.527c1.248-0.043,2.337-0.619,3.547-0.684c0.879-0.049,1.76-0.059,2.505-0.658
				c0.311-0.25,0.73-0.258,1.123-0.291c0.34-0.027,0.669-0.066,0.969-0.275c1.198-0.838,2.553-1.387,3.843-2.057
				c0.768-0.398,1.445-0.975,2.317-1.164c0.824-1.436,2.38-2.094,3.472-3.279c1.361-1.475,3.043-2.619,4.055-4.459
				c1.167-2.123,2.773-3.977,3.813-6.197c1.493-3.188,2.664-6.506,3.352-9.924c0.458-2.273,0.895-4.609,0.996-6.945
				c0.151-3.512,0.202-7.029,0.348-10.543C109.643,401.383,109.526,397.758,109.526,393.528z"/>
			<path fill-rule="evenodd" clip-rule="evenodd" fill="#FFFFFF" d="M246.24,395.111c0,18.637,0,37.273,0,55.91
				c0,2.164,0,2.15-2.183,2.145c-3.766-0.012-7.533-0.002-11.299-0.002c-0.489,0-0.979,0.018-1.467-0.006
				c-0.978-0.049-1.098-0.17-1.159-1.098c-0.016-0.244-0.005-0.49-0.005-0.734c0-18.002,0-36.002,0-54.004
				c0-0.633,0.015-1.258,0.169-1.89c0.152-0.615,0.102-1.266-0.025-1.893c-0.239-1.181-0.558-1.443-1.796-1.443
				c-18.93,0-37.861,0.003-56.791,0.009c-1.649,0-1.905,0.267-1.911,2.003c-0.01,2.887,0.001,5.771,0.002,8.658
				c0.002,16.045,0.003,32.088,0.005,48.133c0,0.195,0.002,0.391,0,0.586c-0.023,1.521-0.155,1.662-1.695,1.666
				c-4.158,0.01-8.315,0.014-12.473,0.012c-1.693,0-1.853-0.115-1.795-1.861c0.391-11.877,0.177-23.758,0.197-35.639
				c0.037-22.843,0.007-45.687,0.033-68.53c0.002-1.909-0.335-3.791-0.258-5.703c0.055-1.366,0.054-2.73,0.27-4.086
				c0.156-0.98,0.201-1.081,1.17-1.104c1.173-0.029,2.348-0.001,3.521,0c3.131,0.003,6.261-0.004,9.392,0.011
				c1.169,0.005,1.137,0.037,1.414,1.159c0.178,0.722,0.23,1.439,0.229,2.175c-0.006,13.941-0.003,27.882-0.015,41.823
				c-0.001,1.708-0.303,3.402-0.257,5.116c0.038,1.407,0.455,1.835,1.825,1.779c0.488-0.02,0.978-0.018,1.467-0.018
				c18.294-0.001,36.588-0.006,54.882,0.004c2.68,0.001,2.44-0.105,2.439-2.375c-0.007-15.736,0-31.472,0.009-47.208
				c0.001-2.425,0.058-2.47,2.438-2.472c3.962-0.003,7.924-0.008,11.887-0.001c1.526,0.002,1.538,0.014,1.695,1.504
				c0.061,0.582,0.08,1.17,0.08,1.756c0.004,18.539,0.003,37.078,0.003,55.617C246.238,395.111,246.239,395.111,246.24,395.111z"/>
			<path fill-rule="evenodd" clip-rule="evenodd" fill="#FFFFFF" d="M356.444,453.26c-2.445,0-4.891,0.01-7.336-0.004
				c-1.18-0.008-1.15-0.043-1.596-1.219c-0.533-1.41-1.075-2.82-1.699-4.193c-1.413-3.105-2.392-6.383-3.767-9.496
				c-1.499-3.393-2.557-6.951-4.044-10.346c-1.207-2.756-2.266-5.572-3.27-8.412c-0.695-1.969-1.565-3.875-2.363-5.809
				c-0.443-1.072-1.082-1.648-2.415-1.643c-13.84,0.055-27.681,0.035-41.521,0.037c-0.293,0-0.589,0.031-0.879,0
				c-0.853-0.086-1.357,0.266-1.664,1.08c-0.908,2.406-1.825,4.811-2.824,7.182c-0.586,1.389-1.229,2.752-1.692,4.193
				c-1.255,3.9-3.136,7.553-4.545,11.398c-1.154,3.152-2.335,6.303-3.754,9.357c-0.734,1.582-1.284,3.256-1.833,4.916
				c-0.275,0.834-0.918,1.492-1.013,2.412c-0.041,0.4-0.5,0.418-0.84,0.424c-1.125,0.016-2.25,0.041-3.374,0.008
				c-0.921-0.029-1.075-0.311-0.702-1.225c1.27-3.115,2.6-6.207,3.818-9.342c0.933-2.402,1.89-4.789,2.922-7.152
				c1.023-2.344,1.743-4.822,2.772-7.164c1.037-2.357,2.117-4.701,3.076-7.092c0.853-2.125,1.726-4.246,2.385-6.445
				c0.083-0.281,0.151-0.584,0.31-0.818c1.021-1.514,1.379-3.311,2.139-4.922c0.746-1.582,1.281-3.242,2.02-4.824
				c0.737-1.582,1.229-3.277,1.871-4.906c0.639-1.621,1.323-3.225,2-4.831c1.081-2.559,2.265-5.079,3.22-7.684
				c0.445-1.215,1.173-2.332,1.282-3.7c0.067-0.848,0.546-1.702,0.96-2.422c1.662-2.894,2.508-6.112,3.734-9.166
				c1.229-3.06,2.569-6.076,3.75-9.158c1.213-3.169,2.583-6.279,3.861-9.425c0.692-1.704,1.323-3.432,2.005-5.141
				c0.701-1.757,1.383-3.526,2.163-5.249c0.685-1.511,1.255-3.053,1.768-4.628c0.329-1.01,0.799-1.976,1.182-2.974
				c0.493-1.285,1.427-1.733,2.779-1.574c0.339,0.04,0.68,0.116,1.018,0.105c0.653-0.021,1.001,0.336,1.179,0.893
				c0.615,1.932,1.533,3.769,2.107,5.685c0.574,1.917,1.388,3.729,2.167,5.524c1.054,2.429,1.755,5.009,3.113,7.32
				c0.653,1.111,0.889,2.464,1.517,3.593c1.01,1.813,1.314,3.867,2.19,5.739c0.874,1.869,1.608,3.823,2.416,5.737
				c1.18,2.797,2.179,5.67,3.241,8.516c0.253,0.679,0.576,1.321,0.878,1.977c1.066,2.322,2.017,4.703,2.954,7.071
				c0.768,1.937,1.888,3.729,2.444,5.723c0.523,1.876,1.394,3.616,1.921,5.474c0.34,1.193,0.908,2.256,1.539,3.281
				c0.826,1.34,0.975,2.902,1.582,4.318c0.744,1.736,1.576,3.441,2.242,5.197c0.531,1.4,1.017,2.801,1.696,4.143
				c0.688,1.361,1.386,2.756,1.777,4.217c0.401,1.498,0.955,2.941,1.57,4.324c0.859,1.932,1.238,4.088,2.608,5.791
				c0.173,0.215,0.234,0.533,0.309,0.813c0.43,1.635,0.884,3.254,1.858,4.674c0.128,0.188,0.124,0.465,0.179,0.701
				c0.089,0.377,0.055,0.871,0.284,1.113c1.048,1.1,0.937,2.717,1.804,3.867c0.387,0.514,0.178,1.119,0.45,1.668
				c0.876,1.76,1.522,3.629,2.286,5.436c0.417,0.986,0.705,2.061,1.274,3.016c0.532,0.895,0.662,1.992,1.087,2.967
				c0.326,0.75,0.046,1.078-0.802,1.086c-2.592,0.021-5.185,0.008-7.776,0.008C356.444,453.273,356.444,453.268,356.444,453.26z
				 M308.722,407.742c0,0.006,0,0.012,0,0.018c5.626,0,11.251,0,16.876,0c0.78,0,1.554,0.025,2.336,0.102
				c1.307,0.131,1.843-0.697,1.331-1.865c-0.703-1.607-1.262-3.271-1.969-4.881c-1.176-2.68-2.269-5.402-3.18-8.192
				c-0.302-0.926-0.823-1.784-1.082-2.718c-0.203-0.733-0.903-1.178-0.979-1.93c-0.135-1.34-0.811-2.506-1.277-3.717
				c-1.499-3.897-3.176-7.725-4.586-11.661c-0.97-2.703-2.002-5.385-3.189-8.002c-1.126-2.482-2.089-5.028-2.957-7.61
				c-0.137-0.409-0.084-0.975-0.608-1.061c-0.468-0.076-0.744,0.418-1.062,0.699c-0.202,0.179-0.298,0.494-0.401,0.764
				c-0.333,0.863-0.613,1.748-0.975,2.599c-2.194,5.163-4.26,10.374-6.263,15.614c-0.93,2.433-1.835,4.886-2.951,7.267
				c-1.958,4.178-3.266,8.636-5.102,12.88c-0.987,2.281-1.824,4.629-2.737,6.943c-0.43,1.09-0.939,2.154-1.304,3.266
				c-0.36,1.096,0.197,1.754,1.321,1.617c1.213-0.148,2.429-0.117,3.642-0.121C298.646,407.73,303.684,407.742,308.722,407.742z"/>
			<path fill-rule="evenodd" clip-rule="evenodd" fill="#FFFFFF" d="M146.345,510.996c0-7.336-0.003-14.672,0.006-22.01
				c0-0.502-0.245-1.189,0.452-1.385c0.634-0.178,1.056,0.318,1.455,0.777c2.68,3.094,5.477,6.094,8.024,9.291
				c1.642,2.061,3.479,3.951,5.019,6.098c0.704,0.98,1.628,1.801,2.457,2.691c0.199,0.215,0.467,0.383,0.613,0.625
				c1.443,2.404,3.587,4.238,5.238,6.479c0.771,1.045,1.76,1.943,2.595,2.963c1.607,1.961,3.266,3.881,4.912,5.811
				c0.348,0.408,0.747,0.773,1.098,1.18c0.375,0.434,0.844,0.494,1.331,0.322c0.456-0.158,0.428-0.605,0.433-0.996
				c0.008-0.586,0.004-1.174,0.004-1.76c0.002-10.469,0.005-20.936,0.008-31.404c0-0.342-0.003-0.686,0.026-1.025
				c0.037-0.43,0.21-0.762,0.715-0.748c0.48,0.012,0.694,0.326,0.744,0.752c0.045,0.387,0.045,0.779,0.045,1.17
				c0.004,9.195,0.007,18.393,0.008,27.588c0,5.088,0.006,10.174-0.017,15.262c-0.002,0.596,0.277,1.395-0.466,1.707
				c-0.831,0.35-1.162-0.461-1.615-0.943c-3.263-3.488-6.19-7.258-9.263-10.906c-1.972-2.342-3.911-4.734-6.101-6.902
				c-1.174-1.16-2.071-2.582-3.204-3.805c-2.213-2.389-4.012-5.123-6.276-7.484c-1.71-1.783-3.208-3.771-4.769-5.695
				c-0.302-0.373-0.597-0.604-1.08-0.633c-0.833-0.047-1.062,0.094-1.082,0.955c-0.038,1.613-0.02,3.227-0.018,4.842
				c0.009,9.537,0.021,19.076,0.025,28.615c0,0.484-0.014,0.979-0.104,1.453c-0.071,0.379-0.396,0.553-0.781,0.506
				c-0.364-0.043-0.447-0.342-0.467-0.643c-0.019-0.293,0.004-0.588,0.004-0.881c0-7.287,0-14.576,0-21.865
				C146.327,510.996,146.336,510.996,146.345,510.996z"/>
			<path fill-rule="evenodd" clip-rule="evenodd" fill="#FFFFFF" d="M333.099,511.227c0,6.994,0.001,13.99-0.002,20.984
				c0,0.537,0.036,1.084-0.046,1.611c-0.133,0.857-0.785,1.098-1.499,0.594c-0.159-0.111-0.327-0.238-0.428-0.398
				c-0.685-1.088-1.707-1.877-2.505-2.861c-2.546-3.141-5.185-6.201-7.823-9.264c-1.368-1.586-2.824-3.115-4.096-4.762
				c-1.468-1.898-3.149-3.594-4.638-5.455c-2.007-2.512-4.139-4.912-6.229-7.35c-1.59-1.852-3.118-3.756-4.652-5.654
				c-0.286-0.354-0.509-0.762-1.041-0.619c-0.559,0.148-0.742,0.605-0.746,1.129c-0.013,1.469-0.012,2.936-0.011,4.402
				c0.004,9.586,0.011,19.174,0.015,28.762c0,0.439-0.001,0.881-0.031,1.32c-0.032,0.475-0.206,0.893-0.758,0.902
				c-0.488,0.006-0.871-0.291-0.971-0.75c-0.112-0.52-0.119-1.066-0.119-1.602c-0.008-6.85-0.009-13.697-0.007-20.545
				c0.001-7.238,0.009-14.477,0.011-21.717c0-0.635-0.029-1.266,0.152-1.893c0.113-0.391,0.191-0.756,0.683-0.828
				c0.423-0.061,0.749,0.018,1.005,0.406c0.812,1.23,1.933,2.201,2.858,3.328c2.596,3.166,5.285,6.25,7.928,9.373
				c2.738,3.238,5.507,6.451,8.214,9.713c1.645,1.982,3.438,3.836,4.968,5.928c1.406,1.922,3.083,3.646,4.667,5.436
				c0.422,0.477,0.875,0.916,1.21,1.465c0.177,0.289,0.381,0.576,0.626,0.809c0.324,0.311,0.793,0.541,1.188,0.436
				c0.479-0.125,0.47-0.682,0.471-1.115c0.009-2.299,0.001-4.598,0.001-6.896c0-8.854,0.001-17.707,0.002-26.561
				c0-0.293-0.006-0.588,0.014-0.879c0.027-0.414,0.123-0.789,0.648-0.807s0.845,0.252,0.895,0.762
				c0.053,0.533,0.051,1.074,0.052,1.611c0.003,6.994,0.002,13.99,0.002,20.984C333.103,511.227,333.101,511.227,333.099,511.227z"
				/>
			<path fill-rule="evenodd" clip-rule="evenodd" fill="#FFFFFF" d="M419.123,534.787c-0.244,0-0.488,0.002-0.733,0
				c-2.501-0.029-2.407-0.068-3.362-2.471c-1.693-4.262-3.087-8.643-5.035-12.805c-0.124-0.266-0.258-0.525-0.386-0.789
				c-0.328-0.678-0.82-1-1.622-0.996c-5.034,0.023-10.069,0.016-15.104-0.002c-1.011-0.002-1.62,0.48-2.065,1.348
				c-0.648,1.262-1.045,2.629-1.52,3.947c-1.275,3.535-2.921,6.918-4.19,10.451c-0.208,0.58-0.521,1.055-1.146,1.232
				c-0.75,0.215-1.166-0.152-1.007-0.906c0.06-0.283,0.185-0.559,0.32-0.816c1.142-2.168,1.85-4.516,2.79-6.766
				c1.805-4.322,3.548-8.67,5.298-13.014c1.438-3.566,2.837-7.15,4.276-10.717c1.039-2.576,2.13-5.129,3.171-7.705
				c0.876-2.168,1.711-4.352,2.564-6.529c0.035-0.09,0.052-0.193,0.105-0.271c0.368-0.537,0.477-1.381,1.322-1.395
				c0.898-0.016,0.951,0.801,1.237,1.41c2.609,5.572,4.52,11.432,7.036,17.045c0.972,2.168,1.759,4.438,2.643,6.654
				c0.487,1.221,1.086,2.396,1.578,3.613c0.547,1.354,1.053,2.725,1.536,4.102c1.102,3.135,2.6,6.104,3.792,9.199
				c0.63,1.635,1.309,3.252,1.943,4.887c0.322,0.83,0.109,1.18-0.804,1.238c-0.876,0.057-1.758,0.012-2.638,0.012
				C419.123,534.758,419.123,534.773,419.123,534.787z M400.293,516.172c0,0.002,0,0.004,0,0.004c1.956,0,3.911,0.004,5.866,0
				c1.708-0.004,1.979-0.391,1.473-2.059c-0.283-0.934-0.652-1.846-1.031-2.734c-1.108-2.6-2.098-5.242-3.122-7.873
				c-0.796-2.047-1.605-4.09-2.406-6.135c-0.129-0.33-0.278-0.637-0.692-0.654c-0.422-0.018-0.593,0.273-0.72,0.609
				c-0.053,0.137-0.095,0.277-0.146,0.414c-0.933,2.5-1.91,4.977-2.971,7.428c-1.085,2.504-2.001,5.08-2.984,7.625
				c-0.264,0.684-0.54,1.365-0.747,2.066c-0.238,0.805,0.044,1.191,0.883,1.303c0.24,0.031,0.487,0.006,0.732,0.006
				C396.383,516.174,398.338,516.172,400.293,516.172z"/>
			<path fill-rule="evenodd" clip-rule="evenodd" d="M109.526,393.528c0,4.23,0.117,7.855-0.034,11.47
				c-0.146,3.514-0.197,7.031-0.348,10.543c-0.101,2.336-0.537,4.672-0.996,6.945c-0.688,3.418-1.859,6.736-3.352,9.924
				c-1.04,2.221-2.646,4.074-3.813,6.197c-1.012,1.84-2.694,2.984-4.055,4.459c-1.092,1.186-2.648,1.844-3.472,3.279
				c-0.872,0.189-1.549,0.766-2.317,1.164c-1.29,0.67-2.645,1.219-3.843,2.057c-0.3,0.209-0.629,0.248-0.969,0.275
				c-0.392,0.033-0.812,0.041-1.123,0.291c-0.745,0.6-1.625,0.609-2.505,0.658c-1.21,0.064-2.3,0.641-3.547,0.684
				c-4.099,0.146-8.167,0.383-12.245-0.527c-1.472-0.328-2.829-0.953-4.308-1.262c-1.169-0.244-2.264-1.082-3.35-1.713
				c-0.673-0.391-1.411-0.586-2.086-0.988c-1.905-1.137-3.454-2.705-5.087-4.127c-2.332-2.031-4.146-4.559-5.744-7.256
				c-1.043-1.76-1.738-3.678-2.819-5.402c-0.929-1.484-1.08-3.217-1.501-4.861c-0.085-0.33-0.089-0.684-0.201-1.002
				c-0.526-1.49-0.717-3.023-0.701-4.6c0.009-0.936-0.545-1.768-0.573-2.713c-0.075-2.535-0.076-5.076-0.284-7.602
				c-0.68-8.248-0.31-16.512-0.225-24.761c0.04-3.884-0.016-7.829,0.607-11.68c0.373-2.302,0.353-4.68,1.158-6.911
				c0.083-0.229,0.164-0.471,0.176-0.71c0.184-3.558,1.862-6.588,3.347-9.701c0.734-1.539,1.812-2.875,2.458-4.466
				c0.226-0.556,0.793-0.97,1.188-1.461c1.8-2.235,3.798-4.291,6.042-6.063c1.247-0.985,2.697-1.74,4.124-2.467
				c2.297-1.17,4.604-2.342,7.121-3.001c0.378-0.099,0.755-0.302,1.131-0.296c2.45,0.038,4.824-0.666,7.264-0.708
				c1.177-0.021,2.34-0.009,3.47,0.418c0.65,0.246,1.358,0.161,2.038,0.146c2.043-0.047,3.959,0.488,5.773,1.337
				c1.492,0.699,3.071,1.251,4.484,2.061c2.13,1.22,4.348,2.321,6.172,4.069c1.085,1.04,2.146,2.11,3.228,3.154
				c0.757,0.73,1.291,1.697,1.872,2.557c0.698,1.033,1.488,2.023,2.116,3.128c1.094,1.926,1.842,3.995,2.628,6.024
				c0.925,2.387,1.515,4.905,2.024,7.446c0.571,2.851,0.646,5.703,0.774,8.573C109.492,382.116,109.661,388.124,109.526,393.528z"/>
			<path fill-rule="evenodd" clip-rule="evenodd" d="M308.722,407.742c-5.038,0-10.076-0.012-15.115,0.01
				c-1.213,0.004-2.429-0.027-3.642,0.121c-1.124,0.137-1.681-0.521-1.321-1.617c0.365-1.111,0.874-2.176,1.304-3.266
				c0.913-2.314,1.75-4.662,2.737-6.943c1.836-4.244,3.143-8.702,5.102-12.88c1.116-2.38,2.021-4.834,2.951-7.267
				c2.003-5.241,4.068-10.452,6.263-15.614c0.361-0.851,0.642-1.735,0.975-2.599c0.104-0.27,0.199-0.585,0.401-0.764
				c0.317-0.281,0.594-0.775,1.062-0.699c0.524,0.085,0.472,0.652,0.608,1.061c0.868,2.582,1.831,5.128,2.957,7.61
				c1.188,2.618,2.22,5.3,3.189,8.002c1.41,3.936,3.087,7.764,4.586,11.661c0.467,1.211,1.143,2.377,1.277,3.717
				c0.075,0.752,0.775,1.197,0.979,1.93c0.259,0.934,0.78,1.792,1.082,2.718c0.911,2.79,2.004,5.512,3.18,8.192
				c0.707,1.609,1.266,3.273,1.969,4.881c0.512,1.168-0.024,1.996-1.331,1.865c-0.782-0.076-1.556-0.102-2.336-0.102
				c-5.625,0-11.25,0-16.876,0C308.722,407.754,308.722,407.748,308.722,407.742z M308.727,407c3.865,0,7.73-0.037,11.595,0.012
				c2.299,0.029,4.586-0.135,6.876-0.256c0.903-0.047,1.028-0.215,0.74-1.084c-0.337-1.018-0.746-2.01-1.095-3.025
				c-0.988-2.877-2.386-5.586-3.446-8.441c-0.946-2.548-1.586-5.234-3.067-7.57c-0.102-0.16-0.125-0.369-0.181-0.557
				c-1.134-3.878-2.722-7.586-4.33-11.28c-0.799-1.834-1.341-3.76-2.146-5.579c-0.475-1.074-0.701-2.21-1.135-3.283
				c-0.447-1.107-0.896-2.219-1.438-3.281c-0.576-1.132-0.719-2.424-1.392-3.515c-0.178-0.288-0.236-0.684-0.64-0.717
				c-0.495-0.041-0.578,0.393-0.78,0.73c-1.1,1.84-1.449,3.965-2.236,5.927c-1.226,3.057-2.534,6.086-3.67,9.186
				c-0.778,2.123-1.538,4.274-2.658,6.292c-0.853,1.537-1.232,3.339-1.875,5.007c-0.978,2.539-1.882,5.104-2.969,7.601
				c-0.892,2.049-1.832,4.088-2.563,6.195c-0.652,1.883-1.298,3.76-2.126,5.57c-0.102,0.223-0.22,0.441-0.284,0.676
				c-0.216,0.793-0.014,1.115,0.791,1.148c1.559,0.061,3.104,0.281,4.673,0.264C299.823,406.969,304.275,407.002,308.727,407z"/>
			<path fill-rule="evenodd" clip-rule="evenodd" d="M400.293,516.172c-1.955,0-3.91,0.002-5.865,0
				c-0.245,0-0.492,0.025-0.732-0.006c-0.839-0.111-1.121-0.498-0.883-1.303c0.207-0.701,0.483-1.383,0.747-2.066
				c0.983-2.545,1.899-5.121,2.984-7.625c1.061-2.451,2.038-4.928,2.971-7.428c0.051-0.137,0.093-0.277,0.146-0.414
				c0.127-0.336,0.298-0.627,0.72-0.609c0.414,0.018,0.563,0.324,0.692,0.654c0.801,2.045,1.61,4.088,2.406,6.135
				c1.024,2.631,2.014,5.273,3.122,7.873c0.379,0.889,0.748,1.801,1.031,2.734c0.507,1.668,0.235,2.055-1.473,2.059
				c-1.955,0.004-3.91,0-5.866,0C400.293,516.176,400.293,516.174,400.293,516.172z"/>
			<path fill-rule="evenodd" clip-rule="evenodd" d="M308.727,407c-4.451,0.002-8.904-0.031-13.355,0.02
				c-1.57,0.018-3.114-0.203-4.673-0.264c-0.805-0.033-1.006-0.355-0.791-1.148c0.063-0.234,0.182-0.453,0.284-0.676
				c0.829-1.811,1.474-3.688,2.126-5.57c0.73-2.107,1.67-4.146,2.563-6.195c1.087-2.497,1.992-5.062,2.969-7.601
				c0.643-1.668,1.022-3.47,1.875-5.007c1.12-2.018,1.88-4.168,2.658-6.292c1.136-3.1,2.444-6.129,3.67-9.186
				c0.787-1.962,1.137-4.087,2.236-5.927c0.202-0.338,0.285-0.771,0.78-0.73c0.403,0.034,0.462,0.43,0.64,0.717
				c0.673,1.091,0.815,2.383,1.392,3.515c0.542,1.063,0.99,2.174,1.438,3.281c0.434,1.072,0.66,2.209,1.135,3.283
				c0.805,1.819,1.347,3.745,2.146,5.579c1.608,3.694,3.196,7.401,4.33,11.28c0.056,0.188,0.079,0.397,0.181,0.557
				c1.481,2.336,2.121,5.022,3.067,7.57c1.061,2.855,2.458,5.564,3.446,8.441c0.349,1.016,0.758,2.008,1.095,3.025
				c0.288,0.869,0.163,1.037-0.74,1.084c-2.29,0.121-4.577,0.285-6.876,0.256C316.457,406.963,312.592,407,308.727,407z"/>
		</g>
	</g>
</g>
</svg>
